<?xml version="1.0" encoding="UTF-8"?>
<svg viewBox="0 0 940 150" version="1.1" xmlns="http://www.w3.org/2000/svg" xmlns:xlink="http://www.w3.org/1999/xlink">
    <defs>
        <path d="M8.00164103,39.9274446 C8.01695726,39.6996947 8.13948718,41.1202363 8.36923077,44.1890694 C8.49230769,45.8641064 8.55384615,47.4771049 8.55384615,49.028065 C8.55384615,49.8345643 8.46153846,51.7267356 8.27692308,54.704579 C8.15384615,56.689808 8.09230769,58.0856721 8.09230769,58.8921713 C8.09230769,61.745938 9.23076923,63.1728213 11.5076923,63.1728213 C13.9076923,63.1728213 15.1076923,61.2186115 15.1076923,57.310192 C15.1076923,56.3175775 15.0769231,55.5420975 15.0153846,54.9837518 L15.0153846,54.9837518 L14.6461538,51.5406204 C14.5846154,50.9822747 14.5538462,49.9276219 14.5538462,48.3766617 C14.5538462,44.0339734 16.7692308,41.8626292 21.2,41.8626292 L21.2,41.8626292 L24.0615385,41.8626292 C28.5538462,41.8626292 30.8,44.0649926 30.8,48.4697194 L30.8,48.4697194 L30.8923077,63.6381093 L30.8923077,71.5480059 L30.8,79.7370753 L30.8,86.2511078 C30.8,90.9039882 29.2615385,93.2304284 26.1846154,93.2304284 C25.6923077,93.2304284 24.9538462,93.1528804 23.9692308,92.9977843 C22.9846154,92.8426883 22.2461538,92.7651403 21.7538462,92.7651403 C19.7846154,92.7651403 18.8,93.7577548 18.8,95.7429838 C18.8,97.9143279 20.1538462,99 22.8615385,99 L22.8615385,99 L23.5076923,99 C23.7538462,98.9379616 23.9692308,98.9069424 24.1538462,98.9069424 L24.1538462,98.9069424 L28.7692308,98.2555391 C30.5538462,98.0073855 32.6153846,97.8833087 34.9538462,97.8833087 C37.1076923,97.8833087 39.0461538,98.0073855 40.7692308,98.2555391 L40.7692308,98.2555391 L45.2923077,98.9069424 C45.4153846,98.9069424 45.6307692,98.9379616 45.9384615,99 L45.9384615,99 L46.4923077,99 C49.2615385,99 50.6461538,97.9143279 50.6461538,95.7429838 C50.6461538,94.9364845 50.3538462,94.2385524 49.7692308,93.6491876 C49.1846154,93.0598227 48.4923077,92.7651403 47.6923077,92.7651403 C47.2,92.7651403 46.4615385,92.8426883 45.4769231,92.9977843 C44.4923077,93.1528804 43.7538462,93.2304284 43.2615385,93.2304284 C40.1230769,93.2304284 38.5538462,90.9039882 38.5538462,86.2511078 L38.5538462,86.2511078 L38.6461538,54.6115214 L38.9230769,48.0974889 C39.0461538,45.8641064 39.6,44.2666174 40.5846154,43.3050222 C41.5692308,42.3434269 43.2,41.8626292 45.4769231,41.8626292 L45.4769231,41.8626292 L48.0615385,41.8626292 C52.9230769,41.8626292 55.3538462,44.0029542 55.3538462,48.2836041 C55.3538462,49.4002954 55.2615385,51.0598227 55.0769231,53.2621861 C54.8923077,55.4645495 54.8,57.1240768 54.8,58.2407681 C54.8,61.3426883 55.9692308,62.8936484 58.3076923,62.8936484 C60.7076923,62.8936484 61.9076923,61.6218612 61.9076923,59.0782866 C61.9076923,58.4579025 61.7846154,56.844904 61.5384615,54.239291 C61.3538462,52.254062 61.2615385,50.7961595 61.2615385,49.8655835 L61.2615385,49.8655835 L61.2615385,48.8419498 C61.4461538,46.9187592 61.6153846,45.1196455 61.7692308,43.4446086 C61.9230769,41.7695716 62,40.6218612 62,40.0014771 L62,40.0014771 L62,39.8153619 C62,37.2717873 60.4615385,36 57.3846154,36 C55.9692308,36 54,36.0930576 51.4769231,36.2791728 C48.6461538,36.465288 46.6461538,36.5583456 45.4769231,36.5583456 C40.4576923,36.6746677 37.2503606,36.7364637 35.8549279,36.7437338 L35.6,36.7444609 L25.0769231,36.5583456 C20.3384615,36.4342688 17.8153846,36.3722304 17.5076923,36.3722304 C14.3692308,36.1861152 12.3692308,36.0930576 11.5076923,36.0930576 C9.16923077,36.0930576 8,37.3958641 8,40.0014771 L8.00164103,39.9274446 Z M69.8851675,99 C70.56353,99 72.1360978,98.8752437 74.6028708,98.625731 C76.4529506,98.4385965 77.9021797,98.3450292 78.9505582,98.3450292 C80.61563,98.3450292 82.619883,98.4697856 84.9633174,98.7192982 C86.6900585,98.9064327 87.9851143,99 88.8484848,99 C91.5619351,99 92.9186603,97.9083821 92.9186603,95.7251462 C92.9186603,93.791423 91.9319511,92.8245614 89.9585327,92.8245614 C89.5268474,92.8245614 88.8639022,92.9337232 87.969697,93.1520468 C87.0754918,93.3703704 86.3817119,93.4795322 85.8883573,93.4795322 C84.4082935,93.4795322 83.5140883,91.9512671 83.2057416,88.8947368 C83.1509244,88.3957115 83.1204705,86.7138113 83.1143797,83.8490362 L83.1132376,80.9415205 C83.174907,80.0682261 83.2057416,79.4444444 83.2057416,79.0701754 L83.2057416,79.0701754 L83.2982456,72.3333333 C83.3599149,67.2183236 84.1616162,63.5068226 85.7033493,61.1988304 C87.923445,57.8304094 91.4694312,56.1461988 96.3413078,56.1461988 C100.843169,56.1461988 103.988304,57.7680312 105.776715,61.0116959 C107.010101,63.1949318 107.626794,67.4678363 107.626794,73.8304094 L107.626794,73.8304094 L107.626794,78.8830409 L107.53429,82.9064327 C107.472621,85.0896686 107.441786,86.5555556 107.441786,87.3040936 C107.380117,91.3586745 106.424242,93.3859649 104.574163,93.3859649 C104.080808,93.3859649 103.556619,93.2923977 103.001595,93.1052632 C102.076555,92.7933723 101.274854,92.6374269 100.596491,92.6374269 C99.7331207,92.6374269 98.9776715,92.9181287 98.3301435,93.4795322 C97.6826156,94.0409357 97.3588517,94.7270955 97.3588517,95.5380117 C97.3588517,96.5360624 97.7288676,97.3625731 98.4688995,98.0175439 C99.2089314,98.6725146 100.133971,99 101.244019,99 C101.860712,99 103.464115,98.8128655 106.054226,98.4385965 C106.917597,98.3138402 108.150984,98.251462 109.754386,98.251462 C111.357788,98.251462 113.454545,98.4074074 116.044657,98.7192982 C117.58639,98.9064327 118.758107,99 119.559809,99 C122.519936,99 124,97.9707602 124,95.9122807 C124,93.8538012 122.859117,92.8245614 120.577352,92.8245614 C119.960659,92.8245614 119.467305,92.8557505 119.097289,92.9181287 C118.172249,93.1676413 117.463052,93.2923977 116.969697,93.2923977 C115.612972,93.2923977 114.811271,91.7329435 114.564593,88.6140351 C114.509531,88.2798663 114.479051,86.627919 114.473151,83.6581931 L114.472089,66.9064327 C114.472089,61.9161793 112.868687,57.8927875 109.661882,54.8362573 C106.455077,51.7797271 102.199894,50.251462 96.8963317,50.251462 C94.1212121,50.251462 91.7161085,50.7037037 89.6810207,51.6081871 C87.645933,52.5126706 85.3950027,54.1500975 82.9282297,56.5204678 L82.9282297,56.5204678 L83.2982456,38.3684211 L83.2982456,38.1812865 C83.2982456,36.122807 82.5890484,35.0935673 81.1706539,35.0935673 C80.7389686,35.0935673 80.0297714,35.1559454 79.0430622,35.2807018 C78.056353,35.4054581 77.2854864,35.4678363 76.7304625,35.4678363 C75.3737374,35.4678363 74.1095162,35.4054581 72.937799,35.2807018 C71.1493886,35.0935673 70.1010101,35 69.7926635,35 C68.744285,35 67.8500797,35.3118908 67.1100478,35.9356725 C66.3700159,36.5594542 66,37.3079922 66,38.1812865 C66,40.1773879 67.0483785,41.1754386 69.1451356,41.1754386 C69.6384902,41.1754386 70.3168527,41.0818713 71.1802233,40.8947368 C72.0435938,40.7076023 72.6911217,40.6140351 73.122807,40.6140351 C74.4795322,40.6140351 75.3429027,41.8460039 75.7129187,44.3099415 C76.0829346,46.7738791 76.2679426,52.6842105 76.2679426,62.0409357 L76.2679426,62.0409357 L76.1754386,78.7894737 C76.1137693,84.6530214 75.913344,88.5360624 75.5741627,90.4385965 C75.2349814,92.3411306 74.5720362,93.2923977 73.585327,93.2923977 C73.1536417,93.2923977 72.4136098,93.1988304 71.3652313,93.0116959 C70.9952153,92.8869396 70.4093567,92.8245614 69.6076555,92.8245614 C67.2642212,92.8245614 66.092504,93.7602339 66.092504,95.6315789 C66.092504,97.877193 67.3567251,99 69.8851675,99 Z M149.185022,100 C154.365639,100 158.991189,98.4238452 163.061674,95.2715356 C167.132159,92.119226 169.167401,88.5143571 169.167401,84.4569288 C169.167401,82.0848939 168.026432,80.8988764 165.744493,80.8988764 C164.140969,80.8988764 163.123348,81.6479401 162.69163,83.1460674 L162.69163,83.1460674 L161.859031,85.8614232 C161.180617,88.1710362 159.715859,90.0749064 157.464758,91.5730337 C155.213656,93.071161 152.731278,93.8202247 150.017621,93.8202247 C145.885463,93.8202247 142.431718,92.2596754 139.656388,89.1385768 C136.881057,86.0174782 135.493392,82.1161049 135.493392,77.4344569 C135.493392,76.9350811 135.61674,76.5761548 135.863436,76.3576779 C136.110132,76.139201 136.634361,76.0299625 137.436123,76.0299625 L137.436123,76.0299625 L166.854626,76.0299625 C168.334802,76.0299625 169.229075,75.7646692 169.537445,75.2340824 C169.845815,74.7034956 170,73.2521848 170,70.8801498 C170,64.8252185 168.118943,59.8314607 164.356828,55.8988764 C160.594714,51.9662921 155.814978,50 150.017621,50 C143.480176,50 138.176211,52.372035 134.105727,57.1161049 C130.035242,61.8601748 128,68.0399501 128,75.6554307 C128,83.0836454 129.911894,88.9981273 133.735683,93.3988764 C137.559471,97.7996255 142.709251,100 149.185022,100 Z M160.06383,69 L138.028369,69 C136.676123,69 136,68.5816092 136,67.7448276 C136,64.7563218 137.413712,62.0517241 140.241135,59.6310345 C143.068558,57.2103448 146.20331,56 149.64539,56 C152.964539,56 155.853428,57.1655172 158.312057,59.4965517 C160.770686,61.8275862 162,64.5770115 162,67.7448276 C162,68.5816092 161.35461,69 160.06383,69 L160.06383,69 Z M202.813559,99 C203.060409,98.9378698 203.245545,98.9068047 203.36897,98.9068047 L203.36897,98.9068047 L208.460235,98.1612426 C209.756193,97.9748521 211.391569,97.8816568 213.366362,97.8816568 C216.081704,97.8816568 218.087353,97.9748521 219.383312,98.1612426 L219.383312,98.1612426 L224.567145,98.9068047 C224.752282,98.9068047 224.968275,98.9378698 225.215124,99 L225.215124,99 L225.863103,99 C228.578444,99 229.936115,97.9127219 229.936115,95.7381657 C229.936115,94.8683432 229.658409,94.1383136 229.102999,93.5480769 C228.547588,92.9578402 227.868753,92.6627219 227.066493,92.6627219 C226.387658,92.6627219 225.554542,92.7559172 224.567145,92.9423077 C223.579748,93.1286982 222.900913,93.2218935 222.530639,93.2218935 C219.938722,93.2218935 218.395915,91.4511834 217.902216,87.9097633 C217.845794,87.5689349 217.815164,85.1247084 217.810328,80.5770837 L217.809648,79.2426036 C217.809648,77.8136095 217.840504,76.5399408 217.902216,75.4215976 L217.902216,75.4215976 L227.621904,66.8476331 C228.177314,66.3505917 228.578444,66.102071 228.825293,66.102071 C229.133855,66.102071 229.473272,66.3505917 229.843546,66.8476331 L229.843546,66.8476331 L247.061278,90.4260355 C247.616688,91.1715976 247.894394,91.7618343 247.894394,92.1967456 C247.894394,92.8180473 247.153846,93.1286982 245.672751,93.1286982 C245.302477,93.1286982 243.91395,93.0044379 241.507171,92.7559172 C240.272925,92.6316568 239.316384,92.5695266 238.637549,92.5695266 C236.230769,92.5695266 235.027379,93.6878698 235.027379,95.9245562 C235.027379,97.9748521 236.169057,99 238.452412,99 C238.760973,99 240.118644,98.8757396 242.525424,98.6272189 C246.166449,98.2544379 249.653194,98.0680473 252.985658,98.0680473 C255.886136,98.0680473 258.478053,98.1923077 260.761408,98.4408284 C263.847023,98.8136095 265.389831,99 265.389831,99 C267.79661,99 269,97.943787 269,95.8313609 C269,93.7189349 267.889179,92.6627219 265.667536,92.6627219 C265.297262,92.6627219 264.279009,92.7559172 262.612777,92.9423077 L262.612777,92.9423077 L262.149935,92.9423077 C261.903086,93.0044379 261.717949,93.035503 261.594524,93.035503 C259.619731,93.035503 256.65754,90.3328402 252.707953,84.9275148 L252.707953,84.9275148 L237.897001,64.6109467 L236.508475,62.4674556 C235.891352,61.7218935 235.58279,61.193787 235.58279,60.8831361 C235.58279,60.3860947 235.953064,59.8269231 236.693611,59.2056213 L236.693611,59.2056213 L254.189048,44.4807692 C256.040417,42.9275148 258.138635,42.1508876 260.483703,42.1508876 C261.100826,42.1508876 261.563668,42.1819527 261.872229,42.2440828 L261.872229,42.2440828 L262.890482,42.2440828 C263.322468,42.306213 263.63103,42.3372781 263.816167,42.3372781 C265.976097,42.3372781 267.056063,41.2810651 267.056063,39.1686391 C267.056063,37.056213 265.883529,36 263.538462,36 C262.736202,36 261.501956,36.1242604 259.835724,36.3727811 C256.564972,36.8698225 253.818774,37.1183432 251.597132,37.1183432 C250.48631,37.1183432 248.850934,36.9940828 246.691004,36.7455621 L246.691004,36.7455621 L241.784876,36.1863905 C240.674055,36.0621302 239.408953,36 237.98957,36 C235.335941,36 234.009126,37.0251479 234.009126,39.0754438 C234.009126,41.25 235.119948,42.3372781 237.341591,42.3372781 C238.3907,42.3372781 240.026076,42.2130178 242.247718,41.964497 C242.432855,41.9023669 242.772273,41.8713018 243.265971,41.8713018 C244.438505,41.8713018 245.024772,42.2130178 245.024772,42.8964497 C245.024772,43.3934911 244.685354,43.9215976 244.006519,44.4807692 L244.006519,44.4807692 L217.902216,66.8476331 L217.809648,55.2914201 C217.747936,49.3890533 217.994785,45.6767751 218.550196,44.1545858 C219.105606,42.6323964 220.463277,41.8713018 222.623207,41.8713018 C223.487179,41.8713018 224.135159,41.933432 224.567145,42.0576923 C225.616254,42.2440828 226.44937,42.3372781 227.066493,42.3372781 C227.868753,42.3372781 228.547588,42.0421598 229.102999,41.4519231 C229.658409,40.8616864 229.936115,40.1316568 229.936115,39.2618343 C229.936115,37.0872781 228.640156,36 226.04824,36 C225.554542,36 223.64146,36.1863905 220.308996,36.5591716 C216.976532,36.9319527 214.477184,37.1183432 212.810952,37.1183432 C211.453281,37.1183432 209.787049,36.9940828 207.812256,36.7455621 L207.812256,36.7455621 L203.36897,36.1863905 C202.875272,36.1242604 202.474142,36.0931953 202.16558,36.0931953 C199.388527,36.0931953 198,37.1804734 198,39.3550296 C198,41.4053254 198.987397,42.4304734 200.96219,42.4304734 C201.517601,42.4304734 202.350717,42.3372781 203.461538,42.1508876 C204.140374,41.964497 204.788353,41.8713018 205.405476,41.8713018 C208.491091,41.8713018 210.033898,44.2011834 210.033898,48.8609467 L210.033898,48.8609467 L210.126467,55.3846154 L210.126467,55.3846154 L210.126467,79.7085799 C210.070365,83.7752824 210.039764,85.9421365 210.034663,86.2091423 L210.033898,86.2322485 C210.033898,90.8920118 208.491091,93.2218935 205.405476,93.2218935 C204.850065,93.2218935 204.202086,93.1597633 203.461538,93.035503 C202.350717,92.8491124 201.517601,92.7559172 200.96219,92.7559172 C199.049109,92.7559172 198.092568,93.75 198.092568,95.7381657 C198.092568,97.9127219 199.481095,99 202.258149,99 L202.258149,99 L202.813559,99 Z M294.185022,100 C299.365639,100 303.991189,98.4238452 308.061674,95.2715356 C312.132159,92.119226 314.167401,88.5143571 314.167401,84.4569288 C314.167401,82.0848939 313.026432,80.8988764 310.744493,80.8988764 C309.140969,80.8988764 308.123348,81.6479401 307.69163,83.1460674 L307.69163,83.1460674 L306.859031,85.8614232 C306.180617,88.1710362 304.715859,90.0749064 302.464758,91.5730337 C300.213656,93.071161 297.731278,93.8202247 295.017621,93.8202247 C290.885463,93.8202247 287.431718,92.2596754 284.656388,89.1385768 C281.881057,86.0174782 280.493392,82.1161049 280.493392,77.4344569 C280.493392,76.9350811 280.61674,76.5761548 280.863436,76.3576779 C281.110132,76.139201 281.634361,76.0299625 282.436123,76.0299625 L282.436123,76.0299625 L311.854626,76.0299625 C313.334802,76.0299625 314.229075,75.7646692 314.537445,75.2340824 C314.845815,74.7034956 315,73.2521848 315,70.8801498 C315,64.8252185 313.118943,59.8314607 309.356828,55.8988764 C305.594714,51.9662921 300.814978,50 295.017621,50 C288.480176,50 283.176211,52.372035 279.105727,57.1161049 C275.035242,61.8601748 273,68.0399501 273,75.6554307 C273,83.0836454 274.911894,88.9981273 278.735683,93.3988764 C282.559471,97.7996255 287.709251,100 294.185022,100 Z M306.06383,69 L284.028369,69 C282.676123,69 282,68.5816092 282,67.7448276 C282,64.7563218 283.413712,62.0517241 286.241135,59.6310345 C289.068558,57.2103448 292.20331,56 295.64539,56 C298.964539,56 301.853428,57.1655172 304.312057,59.4965517 C306.770686,61.8275862 308,64.5770115 308,67.7448276 C308,68.5816092 307.35461,69 306.06383,69 L306.06383,69 Z M329.5,117 C335.875,117 341.1875,114.318634 345.4375,108.955903 C347.9375,105.812233 350.59375,100.757705 353.40625,93.7923186 L353.40625,93.7923186 L366.15625,62.3556188 C367.40625,59.2119488 368.625,57.6401138 369.8125,57.6401138 C370.125,57.6401138 370.6875,57.7325747 371.5,57.9174964 C371.8125,58.0407776 372.28125,58.1024182 372.90625,58.1024182 C374.96875,58.1024182 376,57.1161688 376,55.14367 C376,53.1095306 374.65625,52.0924609 371.96875,52.0924609 C370.90625,52.0924609 369.34375,52.2157421 367.28125,52.4623044 C365.21875,52.7088668 363.65625,52.8321479 362.59375,52.8321479 C361.59375,52.8321479 360.65625,52.7705073 359.78125,52.6472262 L359.78125,52.6472262 L356.40625,52.1849218 C355.53125,52.0616406 354.90625,52 354.53125,52 C351.84375,52 350.5,53.04789 350.5,55.14367 C350.5,57.1161688 351.53125,58.1024182 353.59375,58.1024182 C353.90625,58.1024182 354.5625,58.0407776 355.5625,57.9174964 C356,57.7942153 356.59375,57.7325747 357.34375,57.7325747 C358.78125,57.7325747 359.5,58.2565197 359.5,59.3044097 C359.5,59.7975344 359.34375,60.4755808 359.03125,61.3385491 L359.03125,61.3385491 L347.59375,92.1280228 L336.8125,60.8762447 C336.5625,60.1365576 336.4375,59.5201517 336.4375,59.027027 C336.4375,58.1640588 336.875,57.7325747 337.75,57.7325747 C338.125,57.7325747 338.71875,57.8096254 339.53125,57.9637269 C340.34375,58.1178284 340.9375,58.1948791 341.3125,58.1948791 C343.6875,58.1948791 344.875,57.1778094 344.875,55.14367 C344.875,53.1095306 343.5625,52.0924609 340.9375,52.0924609 C340.3125,52.0924609 339.03125,52.1849218 337.09375,52.3698435 C334.53125,52.6164059 332.125,52.7396871 329.875,52.7396871 C329.5625,52.7396871 329.1875,52.7088668 328.75,52.6472262 L328.75,52.6472262 L328,52.6472262 L324.25,52.1849218 C323.75,52.1232812 323.03125,52.0924609 322.09375,52.0924609 C319.21875,52.0924609 317.78125,53.1403509 317.78125,55.2361309 C317.78125,57.2086297 318.875,58.1948791 321.0625,58.1948791 C321.375,58.1948791 322.015625,58.1024182 322.984375,57.9174964 C323.953125,57.7325747 324.625,57.6401138 325,57.6401138 C326.375,57.6401138 327.59375,59.027027 328.65625,61.8008535 C329.40625,63.7733523 329.78125,64.7596017 329.78125,64.7596017 L329.78125,64.7596017 L340.09375,90.4637269 C341.78125,94.6552869 342.625,97.5215742 342.625,99.0625889 C342.625,102.082978 341.296875,104.810574 338.640625,107.245377 C335.984375,109.68018 333,110.897582 329.6875,110.897582 C327.0625,110.897582 325.28125,110.219535 324.34375,108.863442 C326.15625,108.308677 327.0625,107.045045 327.0625,105.072546 C327.0625,103.839734 326.59375,102.807255 325.65625,101.975107 C324.71875,101.142959 323.53125,100.726885 322.09375,100.726885 C320.28125,100.726885 318.8125,101.327881 317.6875,102.529872 C316.5625,103.731863 316,105.288288 316,107.199147 C316,109.911332 317.296875,112.222854 319.890625,114.133713 C322.484375,116.044571 325.6875,117 329.5,117 Z M401.58,100 C408.132727,100 413.340909,97.6530368 417.204545,92.9591105 C421.068182,88.2651841 423,81.9703491 423,74.0746055 C423,66.8627451 421.176364,61.0808226 417.529091,56.7288379 C413.881818,52.3768532 408.967273,50.2008608 402.785455,50.2008608 C399.694545,50.2008608 397.129091,50.7293161 395.089091,51.7862267 C393.049091,52.8431373 391.04,54.6771879 389.061818,57.2883788 C389.123636,50.2008608 389.401818,44.0769967 389.896364,38.9167862 L389.896364,38.9167862 L389.896364,37.6111908 C389.896364,35.8703969 389.216364,35 387.856364,35 C387.238182,35 386.310909,35.1087996 385.074545,35.3263989 C383.838182,35.5439981 382.88,35.6527977 382.2,35.6527977 C381.581818,35.6527977 380.778182,35.5906265 379.789091,35.4662841 L379.789091,35.4662841 L377.563636,35.1865136 C377.069091,35.1243424 376.450909,35.0932568 375.709091,35.0932568 C373.236364,35.0932568 372,36.1190818 372,38.1707317 C372,40.1602104 373.050909,41.1549498 375.152727,41.1549498 C375.647273,41.1549498 376.234545,41.0927786 376.914545,40.9684362 C378.336364,40.7197513 379.14,40.5954089 379.325455,40.5954089 C380.314545,40.5954089 381.01,40.9995218 381.411818,41.8077475 C381.813636,42.6159732 382.045455,44.1702535 382.107273,46.4705882 L382.107273,46.4705882 L382.292727,71.3701578 L382.107273,80.7890961 L381.829091,87.9698709 C381.767273,89.5863223 381.736364,91.109517 381.736364,92.5394548 C381.674545,92.9746533 381.643636,93.627451 381.643636,94.4978479 C381.643636,97.6064084 382.725455,99.1606887 384.889091,99.1606887 C387.052727,99.1606887 388.134545,98.0416069 388.134545,95.8034433 C388.134545,95.6169297 388.010909,94.6221903 387.763636,92.8192253 C390.607273,97.6064084 395.212727,100 401.58,100 Z M402.267606,93 C396.957746,93 393.356808,90.7603648 391.464789,86.2810945 C390.488263,84.0107794 390,79.8383085 390,73.7636816 C390,70.2048093 390.213615,67.4436153 390.640845,65.4800995 C391.251174,62.7802653 392.715962,60.5252902 395.035211,58.7151741 C397.35446,56.905058 399.948357,56 402.816901,56 C406.906103,56 410.125587,57.6413765 412.475352,60.9241294 C414.825117,64.2068823 416,68.7321725 416,74.5 C416,80.1451078 414.764085,84.6397181 412.292254,87.9838308 C409.820423,91.3279436 406.478873,93 402.267606,93 Z M451.671642,100 C458.426439,100 463.836532,97.690387 467.901919,93.071161 C471.967306,88.4519351 474,82.3345818 474,74.7191011 C474,67.1036205 472.029851,61.0799001 468.089552,56.6479401 C464.149254,52.21598 458.770434,50 451.953092,50 C445.260839,50 439.928927,52.2627965 435.957356,56.7883895 C431.985785,61.3139825 430,67.3845194 430,75 C430,82.6154806 431.970149,88.6860175 435.910448,93.2116105 C439.850746,97.7372035 445.104478,100 451.671642,100 Z M451.72549,93 C447.394336,93 444.023965,91.3586235 441.614379,88.0758706 C439.204793,84.7931177 438,80.2678275 438,74.5 L438,74.5 L438,73.3034826 C438.244009,67.7810945 439.586057,63.5165837 442.026144,60.5099502 C444.466231,57.5033167 447.821351,56 452.091503,56 C461.363834,56 466,62.1359867 466,74.4079602 C466,80.2371476 464.734205,84.7931177 462.202614,88.0758706 C459.671024,91.3586235 456.178649,93 451.72549,93 Z M549.214545,37.3276393 C549.221387,37.2933779 549.282968,37.9169356 549.399287,39.1983122 C549.399287,39.2601969 549.430184,39.4767932 549.491979,39.8481013 L549.491979,39.8481013 L549.491979,40.8691983 L549.58467,41.8902954 C545.259061,36.6300985 539.666667,34 532.807487,34 C524.465241,34 517.745098,37.0942335 512.647059,43.2827004 C507.54902,49.4711674 505,57.6090014 505,67.6962025 C505,77.4739803 507.487225,85.302391 512.461676,91.1814346 C517.436126,97.0604782 524.094474,100 532.43672,100 C539.666667,100 545.568033,97.8959212 550.14082,93.6877637 C554.713607,89.4796062 557,84.0646976 557,77.443038 C557,74.5963432 555.733214,73.1729958 553.199643,73.1729958 C550.851456,73.1729958 549.677362,74.5963432 549.677362,77.443038 C549.677362,80.4753868 549.306595,82.8888889 548.565062,84.6835443 C547.452763,87.4064698 545.521687,89.6033755 542.771836,91.2742616 C540.021985,92.9451477 536.916815,93.7805907 533.456328,93.7805907 C527.091503,93.7805907 522.132501,91.4135021 518.579323,86.6793249 C515.026144,81.9451477 513.249554,75.3389592 513.249554,66.8607595 C513.249554,58.5682138 514.979798,52.0703235 518.440285,47.3670886 C521.900772,42.6638537 526.68984,40.3122363 532.807487,40.3122363 C537.503862,40.3122363 541.304219,41.7046414 544.208556,44.4894515 C547.112894,47.2742616 548.503268,50.8945148 548.379679,55.350211 L548.379679,55.350211 L548.286988,58.6919831 C548.225193,61.3530239 549.399287,62.6835443 551.809269,62.6835443 C554.033868,62.6835443 555.146168,61.2911392 555.146168,58.5063291 L555.146168,58.5063291 L555.146168,57.5780591 L554.775401,54.0506329 C554.590018,52.3178622 554.497326,50.6160338 554.497326,48.9451477 C554.497326,47.769339 554.651812,45.6343179 554.960784,42.5400844 C555.207962,40.0646976 555.331551,38.5794655 555.331551,38.0843882 C555.331551,35.4852321 554.281046,34.185654 552.180036,34.185654 C550.202614,34.185654 549.213904,35.2376934 549.213904,37.3417722 L549.214545,37.3276393 Z M585.671642,100 C592.426439,100 597.836532,97.690387 601.901919,93.071161 C605.967306,88.4519351 608,82.3345818 608,74.7191011 C608,67.1036205 606.029851,61.0799001 602.089552,56.6479401 C598.149254,52.21598 592.770434,50 585.953092,50 C579.260839,50 573.928927,52.2627965 569.957356,56.7883895 C565.985785,61.3139825 564,67.3845194 564,75 C564,82.6154806 565.970149,88.6860175 569.910448,93.2116105 C573.850746,97.7372035 579.104478,100 585.671642,100 Z M585.72549,93 C581.394336,93 578.023965,91.3586235 575.614379,88.0758706 C573.204793,84.7931177 572,80.2678275 572,74.5 L572,74.5 L572,73.3034826 C572.244009,67.7810945 573.586057,63.5165837 576.026144,60.5099502 C578.466231,57.5033167 581.821351,56 586.091503,56 C595.363834,56 600,62.1359867 600,74.4079602 C600,80.2371476 598.734205,84.7931177 596.202614,88.0758706 C593.671024,91.3586235 590.178649,93 585.72549,93 Z M616.40625,99 C617.34375,99 618.8125,98.8752437 620.8125,98.625731 C622.8125,98.3762183 624.3125,98.251462 625.3125,98.251462 C626.5,98.251462 628.1875,98.3762183 630.375,98.625731 C632.5625,98.8752437 634.15625,99 635.15625,99 C637.71875,99 639,97.9707602 639,95.9122807 C639,93.791423 637.96875,92.7309942 635.90625,92.7309942 C635.65625,92.7309942 635.15625,92.7933723 634.40625,92.9181287 C633.21875,93.2300195 632.4375,93.3859649 632.0625,93.3859649 C630.4375,93.3859649 629.59375,91.7953216 629.53125,88.6140351 L629.53125,88.6140351 L629.4375,59.5146199 C629.4375,50.7192982 629.65625,43.920078 630.09375,39.1169591 C630.15625,38.8050682 630.1875,38.337232 630.1875,37.7134503 C630.1875,35.9044834 629.46875,35 628.03125,35 C627.40625,35 626.46875,35.1091618 625.21875,35.3274854 C623.96875,35.545809 623.03125,35.6549708 622.40625,35.6549708 C621.71875,35.6549708 620.875,35.5925926 619.875,35.4678363 L619.875,35.4678363 L617.625,35.1871345 C617.125,35.1247563 616.53125,35.0935673 615.84375,35.0935673 C613.34375,35.0935673 612.09375,36.122807 612.09375,38.1812865 C612.09375,40.1773879 613.15625,41.1754386 615.28125,41.1754386 C615.71875,41.1754386 616.28125,41.1130604 616.96875,40.9883041 C618.40625,40.7387914 619.21875,40.6140351 619.40625,40.6140351 C620.71875,40.6140351 621.59375,41.331384 622.03125,42.7660819 C622.15625,43.3898635 622.25,44.6374269 622.3125,46.5087719 L622.3125,46.5087719 L622.40625,63.1637427 L622.125,77.6666667 L622.03125,84.2163743 C621.96875,88.2709552 621.796875,90.7816764 621.515625,91.748538 C621.234375,92.7153996 620.53125,93.1988304 619.40625,93.1988304 C619.15625,93.1988304 618.25,93.0740741 616.6875,92.8245614 C616.5,92.8245614 616.21875,92.7933723 615.84375,92.7309942 L615.84375,92.7309942 L615.1875,92.7309942 C613.0625,92.7309942 612,93.6978558 612,95.6315789 C612,97.877193 613.3125,99 615.9375,99 L615.9375,99 L616.40625,99 Z M645.40625,99 C646.34375,99 647.8125,98.8752437 649.8125,98.625731 C651.8125,98.3762183 653.3125,98.251462 654.3125,98.251462 C655.5,98.251462 657.1875,98.3762183 659.375,98.625731 C661.5625,98.8752437 663.15625,99 664.15625,99 C666.71875,99 668,97.9707602 668,95.9122807 C668,93.791423 666.96875,92.7309942 664.90625,92.7309942 C664.65625,92.7309942 664.15625,92.7933723 663.40625,92.9181287 C662.21875,93.2300195 661.4375,93.3859649 661.0625,93.3859649 C659.4375,93.3859649 658.59375,91.7953216 658.53125,88.6140351 L658.53125,88.6140351 L658.4375,59.5146199 C658.4375,50.7192982 658.65625,43.920078 659.09375,39.1169591 C659.15625,38.8050682 659.1875,38.337232 659.1875,37.7134503 C659.1875,35.9044834 658.46875,35 657.03125,35 C656.40625,35 655.46875,35.1091618 654.21875,35.3274854 C652.96875,35.545809 652.03125,35.6549708 651.40625,35.6549708 C650.71875,35.6549708 649.875,35.5925926 648.875,35.4678363 L648.875,35.4678363 L646.625,35.1871345 C646.125,35.1247563 645.53125,35.0935673 644.84375,35.0935673 C642.34375,35.0935673 641.09375,36.122807 641.09375,38.1812865 C641.09375,40.1773879 642.15625,41.1754386 644.28125,41.1754386 C644.71875,41.1754386 645.28125,41.1130604 645.96875,40.9883041 C647.40625,40.7387914 648.21875,40.6140351 648.40625,40.6140351 C649.71875,40.6140351 650.59375,41.331384 651.03125,42.7660819 C651.15625,43.3898635 651.25,44.6374269 651.3125,46.5087719 L651.3125,46.5087719 L651.40625,63.1637427 L651.125,77.6666667 L651.03125,84.2163743 C650.96875,88.2709552 650.796875,90.7816764 650.515625,91.748538 C650.234375,92.7153996 649.53125,93.1988304 648.40625,93.1988304 C648.15625,93.1988304 647.25,93.0740741 645.6875,92.8245614 C645.5,92.8245614 645.21875,92.7933723 644.84375,92.7309942 L644.84375,92.7309942 L644.1875,92.7309942 C642.0625,92.7309942 641,93.6978558 641,95.6315789 C641,97.877193 642.3125,99 644.9375,99 L644.9375,99 L645.40625,99 Z M693.185022,100 C698.365639,100 702.991189,98.4238452 707.061674,95.2715356 C711.132159,92.119226 713.167401,88.5143571 713.167401,84.4569288 C713.167401,82.0848939 712.026432,80.8988764 709.744493,80.8988764 C708.140969,80.8988764 707.123348,81.6479401 706.69163,83.1460674 L706.69163,83.1460674 L705.859031,85.8614232 C705.180617,88.1710362 703.715859,90.0749064 701.464758,91.5730337 C699.213656,93.071161 696.731278,93.8202247 694.017621,93.8202247 C689.885463,93.8202247 686.431718,92.2596754 683.656388,89.1385768 C680.881057,86.0174782 679.493392,82.1161049 679.493392,77.4344569 C679.493392,76.9350811 679.61674,76.5761548 679.863436,76.3576779 C680.110132,76.139201 680.634361,76.0299625 681.436123,76.0299625 L681.436123,76.0299625 L710.854626,76.0299625 C712.334802,76.0299625 713.229075,75.7646692 713.537445,75.2340824 C713.845815,74.7034956 714,73.2521848 714,70.8801498 C714,64.8252185 712.118943,59.8314607 708.356828,55.8988764 C704.594714,51.9662921 699.814978,50 694.017621,50 C687.480176,50 682.176211,52.372035 678.105727,57.1161049 C674.035242,61.8601748 672,68.0399501 672,75.6554307 C672,83.0836454 673.911894,88.9981273 677.735683,93.3988764 C681.559471,97.7996255 686.709251,100 693.185022,100 Z M705.06383,69 L683.028369,69 C681.676123,69 681,68.5816092 681,67.7448276 C681,64.7563218 682.413712,62.0517241 685.241135,59.6310345 C688.068558,57.2103448 691.20331,56 694.64539,56 C697.964539,56 700.853428,57.1655172 703.312057,59.4965517 C705.770686,61.8275862 707,64.5770115 707,67.7448276 C707,68.5816092 706.35461,69 705.06383,69 L705.06383,69 Z M742.921659,100 C748.697389,100 753.397849,98.0337079 757.023041,94.1011236 C758.374808,92.6654182 759.542243,90.855181 760.525346,88.670412 C761.508449,86.4856429 762,84.6129838 762,83.0524345 C762,81.9912609 761.662058,81.1173533 760.986175,80.4307116 C760.310292,79.7440699 759.450077,79.4007491 758.40553,79.4007491 C757.115207,79.4007491 756.132104,80.0249688 755.456221,81.2734082 C755.333333,81.5855181 754.96467,82.8339576 754.35023,85.0187266 C753.612903,87.7652934 752.245776,89.9188514 750.248848,91.4794007 C748.25192,93.0399501 745.90169,93.8202247 743.198157,93.8202247 C738.897081,93.8202247 735.533026,92.150437 733.105991,88.8108614 C730.678955,85.4712859 729.465438,80.8676654 729.465438,75 C729.465438,69.3196005 730.75576,64.7627965 733.336406,61.329588 C735.917051,57.8963795 739.327189,56.1797753 743.56682,56.1797753 C746.331797,56.1797753 748.589862,56.803995 750.341014,58.0524345 C752.092166,59.3008739 753.121352,61.0174782 753.428571,63.2022472 C750.356375,63.576779 748.820276,65.0124844 748.820276,67.5093633 C748.820276,68.8826467 749.327189,70.0374532 750.341014,70.9737828 C751.354839,71.9101124 752.6298,72.3782772 754.165899,72.3782772 C756.132104,72.3782772 757.745008,71.6292135 759.004608,70.1310861 C760.264209,68.6329588 760.894009,66.7290886 760.894009,64.4194757 C760.894009,60.2372035 759.265745,56.7883895 756.009217,54.0730337 C752.752688,51.3576779 748.666667,50 743.751152,50 C737.176651,50 731.907834,52.3252185 727.9447,56.9756554 C723.981567,61.6260924 722,67.8214732 722,75.5617978 C722,82.8651685 723.920123,88.7640449 727.760369,93.258427 C731.600614,97.752809 736.654378,100 742.921659,100 Z M786.907895,99 C792.25,99 796.087719,97.2109453 798.421053,93.6328358 C800.140351,90.9800995 801,86.2915423 801,79.5671642 C801,76.7293532 799.925439,75.3104478 797.776316,75.3104478 C795.627193,75.3104478 794.52193,76.5751244 794.460526,79.1044776 L794.460526,79.1044776 L794.276316,85.0268657 C794.092105,90.2706468 791.850877,92.8925373 787.552632,92.8925373 C783.315789,92.8925373 781.197368,89.6537313 781.197368,83.1761194 L781.197368,83.1761194 L781.197368,60.4119403 C781.197368,59.1164179 781.627193,58.4686567 782.486842,58.4686567 L782.486842,58.4686567 L792.618421,58.4686567 C795.135965,58.4686567 796.394737,57.3273632 796.394737,55.0447761 C796.394737,52.8855721 795.22807,51.8059701 792.894737,51.8059701 L792.894737,51.8059701 L782.855263,51.8059701 C781.75,51.8059701 781.197368,51.3432836 781.197368,50.4179104 L781.197368,50.4179104 L781.197368,40.5164179 C781.197368,38.1721393 780.092105,37 777.881579,37 C775.486842,37 774.289474,38.1721393 774.289474,40.5164179 L774.289474,40.5164179 L774.289474,50.0477612 C774.289474,51.2199005 773.767544,51.8059701 772.723684,51.8059701 L772.723684,51.8059701 L769.131579,51.8059701 C768.333333,51.8059701 767.611842,52.1452736 766.967105,52.8238806 C766.322368,53.5024876 766,54.2736318 766,55.1373134 C766,56.0626866 766.322368,56.8492537 766.967105,57.4970149 C767.611842,58.1447761 768.425439,58.4686567 769.407895,58.4686567 L769.407895,58.4686567 L772.355263,58.4686567 C773.52193,58.4686567 774.105263,59.1164179 774.105263,60.4119403 L774.105263,60.4119403 L774.105263,82.6208955 C774.105263,88.1114428 774.872807,91.99801 776.407895,94.280597 C778.495614,97.4268657 781.995614,99 786.907895,99 Z M816,47 C817.369048,47 818.544643,46.5045045 819.526786,45.5135135 C820.508929,44.5225225 821,43.3363363 821,41.954955 C821,40.5735736 820.508929,39.4024024 819.526786,38.4414414 C818.544643,37.4804805 817.369048,37 816,37 C814.630952,37 813.455357,37.4804805 812.473214,38.4414414 C811.491071,39.4024024 811,40.5735736 811,41.954955 C811,43.3363363 811.491071,44.5225225 812.473214,45.5135135 C813.455357,46.5045045 814.630952,47 816,47 Z M826.917526,99 C828.092784,99 829.06701,98.6885355 829.840206,98.0656064 C830.613402,97.4426773 831,96.6951624 831,95.8230616 C831,93.7673956 829.824742,92.7395626 827.474227,92.7395626 C826.85567,92.7395626 826.391753,92.8018555 826.082474,92.9264414 C824.845361,93.2379059 824.072165,93.3936382 823.762887,93.3936382 C822.402062,93.3936382 821.56701,91.9920477 821.257732,89.1888668 C821.201031,88.6749503 821.170318,87.0879952 821.165593,84.4280014 L821.164948,71.528827 C821.164948,68.8502319 821.195876,66.2339298 821.257732,63.6799205 C821.319588,60.3161034 821.381443,58.3850232 821.443299,57.8866799 C821.443299,57.6375083 821.474227,57.2637508 821.536082,56.7654076 C821.597938,56.2670643 821.628866,55.8933068 821.628866,55.6441352 C821.628866,53.2147117 820.731959,52 818.938144,52 C818.443299,52 817.685567,52.0778661 816.664948,52.2335984 C815.64433,52.3893307 814.886598,52.4671968 814.391753,52.4671968 C813.835052,52.4671968 812.56701,52.342611 810.587629,52.0934394 C810.092784,52.0311465 809.257732,52 808.082474,52 C805.360825,52 804,53.0589795 804,55.1769384 C804,57.1703115 805.113402,58.166998 807.340206,58.166998 C807.773196,58.166998 808.438144,58.0579854 809.335052,57.8399602 C810.231959,57.6219351 810.927835,57.5129225 811.42268,57.5129225 C812.969072,57.5129225 813.896907,59.4751491 814.206186,63.3996024 L814.206186,63.3996024 L814.206186,87.3200795 C813.896907,91.3068257 813,93.3001988 811.515464,93.3001988 C811.020619,93.3001988 810.293814,93.2067594 809.335052,93.0198807 C808.376289,92.833002 807.649485,92.7395626 807.154639,92.7395626 C805.051546,92.7395626 804,93.7673956 804,95.8230616 C804,97.9410205 805.237113,99 807.71134,99 C808.515464,99 810.123711,98.8442677 812.536082,98.5328032 C814.515464,98.2836315 816.309278,98.1590457 817.917526,98.1590457 C818.907216,98.1590457 820.407216,98.2992048 822.417526,98.5795229 C824.427835,98.859841 825.927835,99 826.917526,99 Z M859,100 C861.673098,100 863.569132,98.5736434 864.688103,95.7209302 L864.688103,95.7209302 L877.836013,62.2325581 C879.017149,59.255814 880.167203,57.7674419 881.286174,57.7674419 C881.659164,57.7674419 882.311897,57.8604651 883.244373,58.0465116 C883.555198,58.1705426 884.052519,58.2325581 884.736334,58.2325581 C886.912111,58.2325581 888,57.2093023 888,55.1627907 C888,53.1162791 886.663451,52.0930233 883.990354,52.0930233 C883.244373,52.0930233 882.001072,52.1860465 880.26045,52.372093 C877.400857,52.6821705 875.349411,52.8372093 874.106109,52.8372093 C873.173633,52.8372093 872.27224,52.7751938 871.401929,52.6511628 L871.401929,52.6511628 L867.485531,52.0930233 C867.299035,52.0930233 867.050375,52.0620155 866.73955,52 L866.73955,52 L865.993569,52 C863.009646,52 861.517685,53.0852713 861.517685,55.255814 C861.517685,57.3023256 862.543408,58.3255814 864.594855,58.3255814 C865.092176,58.3255814 865.822615,58.2170543 866.786174,58 C867.749732,57.7829457 868.480171,57.6744186 868.977492,57.6744186 C870.282958,57.6744186 870.935691,58.3565891 870.935691,59.7209302 C870.935691,60.2170543 870.624866,61.3333333 870.003215,63.0697674 L870.003215,63.0697674 L859.466238,92.0930233 L848.55627,63.0697674 L847.903537,61.0232558 C847.654877,60.2170543 847.530547,59.5968992 847.530547,59.1627907 C847.530547,58.2945736 848.027867,57.8604651 849.022508,57.8604651 C849.333333,57.8604651 850.079314,57.9844961 851.26045,58.2325581 C851.571275,58.2945736 852.099678,58.3255814 852.845659,58.3255814 C855.207931,58.3255814 856.389068,57.3333333 856.389068,55.3488372 C856.389068,53.2403101 855.021436,52.1860465 852.286174,52.1860465 C851.726688,52.1860465 851.291533,52.2170543 850.980707,52.2790698 L850.980707,52.2790698 L847.903537,52.5581395 C845.85209,52.744186 844.297964,52.8372093 843.241158,52.8372093 C841.935691,52.8372093 840.630225,52.7751938 839.324759,52.6511628 L839.324759,52.6511628 L835.40836,52.2790698 C835.1597,52.2170543 834.78671,52.1860465 834.289389,52.1860465 C831.429796,52.1860465 830,53.3023256 830,55.5348837 C830,57.4573643 831.025723,58.4186047 833.07717,58.4186047 C833.512326,58.4186047 834.165059,58.3255814 835.03537,58.1395349 C835.905681,57.9534884 836.558414,57.8604651 836.993569,57.8604651 C838.174705,57.8604651 839.200429,59.0077519 840.07074,61.3023256 L840.07074,61.3023256 L853.498392,95.7209302 C854.617363,98.5736434 856.451233,100 859,100 Z M912.185022,100 C917.365639,100 921.991189,98.4238452 926.061674,95.2715356 C930.132159,92.119226 932.167401,88.5143571 932.167401,84.4569288 C932.167401,82.0848939 931.026432,80.8988764 928.744493,80.8988764 C927.140969,80.8988764 926.123348,81.6479401 925.69163,83.1460674 L925.69163,83.1460674 L924.859031,85.8614232 C924.180617,88.1710362 922.715859,90.0749064 920.464758,91.5730337 C918.213656,93.071161 915.731278,93.8202247 913.017621,93.8202247 C908.885463,93.8202247 905.431718,92.2596754 902.656388,89.1385768 C899.881057,86.0174782 898.493392,82.1161049 898.493392,77.4344569 C898.493392,76.9350811 898.61674,76.5761548 898.863436,76.3576779 C899.110132,76.139201 899.634361,76.0299625 900.436123,76.0299625 L900.436123,76.0299625 L929.854626,76.0299625 C931.334802,76.0299625 932.229075,75.7646692 932.537445,75.2340824 C932.845815,74.7034956 933,73.2521848 933,70.8801498 C933,64.8252185 931.118943,59.8314607 927.356828,55.8988764 C923.594714,51.9662921 918.814978,50 913.017621,50 C906.480176,50 901.176211,52.372035 897.105727,57.1161049 C893.035242,61.8601748 891,68.0399501 891,75.6554307 C891,83.0836454 892.911894,88.9981273 896.735683,93.3988764 C900.559471,97.7996255 905.709251,100 912.185022,100 Z M923.06383,69 L901.028369,69 C899.676123,69 899,68.5816092 899,67.7448276 C899,64.7563218 900.413712,62.0517241 903.241135,59.6310345 C906.068558,57.2103448 909.20331,56 912.64539,56 C915.964539,56 918.853428,57.1655172 921.312057,59.4965517 C923.770686,61.8275862 925,64.5770115 925,67.7448276 C925,68.5816092 924.35461,69 923.06383,69 L923.06383,69 Z" id="path-1"></path>
    </defs>
    <g stroke="none" stroke-width="1" fill="none" fill-rule="evenodd">
        <g fill-rule="nonzero">
            <use fill="#7B6F64" xlink:href="#path-1"></use>
        </g>
    </g>
</svg>