<svg xmlns="http://www.w3.org/2000/svg" viewBox="0 0 940 150" xmlns:v="https://vecta.io/nano"><defs><path d="M8.002 39.927c.015-.228.138 1.193.368 4.262l.185 4.839-.277 5.677-.185 4.188c0 2.854 1.138 4.281 3.415 4.281 2.4 0 3.6-1.954 3.6-5.863l-.092-2.326h0l-.369-3.443c-.062-.558-.092-1.613-.092-3.164 0-4.343 2.215-6.514 6.646-6.514h0 2.862c4.492 0 6.738 2.202 6.738 6.607h0l.092 15.168v7.91l-.092 8.189v6.514c0 4.653-1.538 6.979-4.615 6.979-.492 0-1.231-.078-2.215-.233s-1.723-.233-2.215-.233c-1.969 0-2.954.993-2.954 2.978 0 2.171 1.354 3.257 4.062 3.257h0 .646c.246-.062.462-.093.646-.093h0l4.615-.651c1.785-.248 3.846-.372 6.185-.372 2.154 0 4.092.124 5.815.372h0l4.523.651c.123 0 .338.031.646.093h0 .554c2.769 0 4.154-1.086 4.154-3.257 0-.806-.292-1.504-.877-2.094s-1.277-.884-2.077-.884c-.492 0-1.231.078-2.215.233s-1.723.233-2.215.233c-3.138 0-4.708-2.326-4.708-6.979h0l.092-31.64.277-6.514c.123-2.233.677-3.831 1.662-4.792s2.615-1.442 4.892-1.442h0 2.585c4.862 0 7.292 2.14 7.292 6.421 0 1.117-.092 2.776-.277 4.979l-.277 4.979c0 3.102 1.169 4.653 3.508 4.653 2.4 0 3.6-1.272 3.6-3.815 0-.62-.123-2.233-.369-4.839l-.277-4.374h0v-1.024l.508-5.397.231-3.443h0v-.186C62 37.272 60.462 36 57.385 36l-5.908.279-6 .279-9.622.185H35.6l-10.523-.186-7.569-.186-6-.279C9.169 36.093 8 37.396 8 40.001l.002-.074zM69.885 99c.678 0 2.251-.125 4.718-.374l4.348-.281c1.665 0 3.669.125 6.013.374l3.885.281c2.713 0 4.07-1.092 4.07-3.275 0-1.934-.987-2.901-2.96-2.901-.432 0-1.095.109-1.989.327s-1.588.327-2.081.327c-1.48 0-2.374-1.528-2.683-4.585-.055-.499-.085-2.181-.091-5.046l-.001-2.908.093-1.871h0l.093-6.737c.062-5.115.863-8.827 2.405-11.135 2.22-3.368 5.766-5.053 10.638-5.053 4.502 0 7.647 1.622 9.435 4.865 1.233 2.183 1.85 6.456 1.85 12.819h0v5.053l-.093 4.023-.093 4.398c-.062 4.055-1.018 6.082-2.868 6.082-.493 0-1.018-.094-1.573-.281-.925-.312-1.727-.468-2.405-.468a3.35 3.35 0 0 0-2.266.842c-.648.561-.971 1.248-.971 2.058 0 .998.37 1.825 1.11 2.48s1.665.982 2.775.982c.617 0 2.22-.187 4.81-.561.863-.125 2.097-.187 3.7-.187s3.7.156 6.29.468c1.542.187 2.713.281 3.515.281 2.96 0 4.44-1.029 4.44-3.088s-1.141-3.088-3.423-3.088c-.617 0-1.11.031-1.48.094-.925.25-1.634.374-2.128.374-1.357 0-2.158-1.559-2.405-4.678-.055-.334-.086-1.986-.091-4.956l-.001-16.752c0-4.99-1.603-9.014-4.81-12.07s-7.462-4.585-12.766-4.585c-2.775 0-5.18.452-7.215 1.357s-4.286 2.542-6.753 4.912h0l.37-18.152v-.187c0-2.058-.709-3.088-2.128-3.088-.432 0-1.141.062-2.128.187s-1.758.187-2.313.187c-1.357 0-2.621-.062-3.793-.187-1.788-.187-2.837-.281-3.145-.281-1.048 0-1.943.312-2.683.936S66 37.308 66 38.181c0 1.996 1.048 2.994 3.145 2.994.493 0 1.172-.094 2.035-.281s1.511-.281 1.943-.281c1.357 0 2.22 1.232 2.59 3.696s.555 8.374.555 17.731h0l-.093 16.749c-.062 5.864-.262 9.747-.601 11.649s-1.002 2.854-1.989 2.854c-.432 0-1.172-.094-2.22-.281-.37-.125-.956-.187-1.758-.187-2.343 0-3.515.936-3.515 2.807 0 2.246 1.264 3.368 3.793 3.368zm79.3 1c5.181 0 9.806-1.576 13.877-4.728s6.106-6.757 6.106-10.815c0-2.372-1.141-3.558-3.423-3.558-1.604 0-2.621.749-3.053 2.247h0l-.833 2.715c-.678 2.31-2.143 4.213-4.394 5.712s-4.733 2.247-7.447 2.247c-4.132 0-7.586-1.561-10.361-4.682s-4.163-7.022-4.163-11.704c0-.499.123-.858.37-1.077s.771-.328 1.573-.328h0 29.419c1.48 0 2.374-.265 2.683-.796s.463-1.982.463-4.354c0-6.055-1.881-11.049-5.643-14.981S155.815 50 150.018 50c-6.537 0-11.841 2.372-15.912 7.116S128 68.04 128 75.655c0 7.428 1.912 13.343 5.736 17.743S142.709 100 149.185 100zm10.879-31h-22.035c-1.352 0-2.028-.418-2.028-1.255 0-2.989 1.414-5.693 4.241-8.114S146.203 56 149.645 56c3.319 0 6.208 1.166 8.667 3.497S162 64.577 162 67.745c0 .837-.645 1.255-1.936 1.255h0zm42.75 30c.247-.062.432-.093.555-.093h0l5.091-.746c1.296-.186 2.931-.28 4.906-.28 2.715 0 4.721.093 6.017.28h0l5.184.746c.185 0 .401.031.648.093h0 .648c2.715 0 4.073-1.087 4.073-3.262 0-.87-.278-1.6-.833-2.19s-1.234-.885-2.037-.885c-.679 0-1.512.093-2.499.28s-1.666.28-2.037.28c-2.592 0-4.135-1.771-4.628-5.312-.056-.341-.087-2.785-.092-7.333v-1.334c0-1.429.031-2.703.093-3.821h0l9.72-8.574c.555-.497.957-.746 1.203-.746.309 0 .648.249 1.018.746h0l17.218 23.578c.555.746.833 1.336.833 1.771 0 .621-.741.932-2.222.932-.37 0-1.759-.124-4.166-.373-1.234-.124-2.191-.186-2.87-.186-2.407 0-3.61 1.118-3.61 3.355 0 2.05 1.142 3.075 3.425 3.075.309 0 1.666-.124 4.073-.373 3.641-.373 7.128-.559 10.46-.559 2.9 0 5.492.124 7.776.373l4.628.559c2.407 0 3.61-1.056 3.61-3.169s-1.111-3.169-3.332-3.169c-.37 0-1.389.093-3.055.28h0-.463c-.247.062-.432.093-.555.093-1.975 0-4.937-2.703-8.887-8.108h0l-14.811-20.317-1.389-2.143c-.617-.746-.926-1.274-.926-1.584 0-.497.37-1.056 1.111-1.678h0l17.495-14.725c1.851-1.553 3.95-2.33 6.295-2.33.617 0 1.08.031 1.389.093h0 1.018c.432.062.741.093.926.093 2.16 0 3.24-1.056 3.24-3.169S265.884 36 263.538 36c-.802 0-2.037.124-3.703.373-3.271.497-6.017.746-8.239.746-1.111 0-2.746-.124-4.906-.373h0l-4.906-.559c-1.111-.124-2.376-.186-3.795-.186-2.654 0-3.98 1.025-3.98 3.075 0 2.175 1.111 3.262 3.332 3.262 1.049 0 2.684-.124 4.906-.373.185-.062.525-.093 1.018-.093 1.173 0 1.759.342 1.759 1.025 0 .497-.339 1.025-1.018 1.584h0l-26.104 22.367-.093-11.556c-.062-5.902.185-9.615.741-11.137s1.913-2.283 4.073-2.283c.864 0 1.512.062 1.944.186 1.049.186 1.882.28 2.499.28.802 0 1.481-.295 2.037-.885s.833-1.32.833-2.19c0-2.175-1.296-3.262-3.888-3.262-.494 0-2.407.186-5.739.559s-5.832.559-7.498.559c-1.358 0-3.024-.124-4.999-.373h0l-4.443-.559a10.06 10.06 0 0 0-1.203-.093c-2.777 0-4.166 1.087-4.166 3.262 0 2.05.987 3.075 2.962 3.075.555 0 1.389-.093 2.499-.28.679-.186 1.327-.28 1.944-.28 3.086 0 4.628 2.33 4.628 6.99h0l.093 6.524h0v24.324l-.092 6.501-.001.023c0 4.66-1.543 6.99-4.628 6.99-.555 0-1.203-.062-1.944-.186-1.111-.186-1.944-.28-2.499-.28-1.913 0-2.87.994-2.87 2.982 0 2.175 1.389 3.262 4.166 3.262h0 .555zm91.371 1c5.181 0 9.806-1.576 13.877-4.728s6.106-6.757 6.106-10.815c0-2.372-1.141-3.558-3.423-3.558-1.604 0-2.621.749-3.053 2.247h0l-.833 2.715c-.678 2.31-2.143 4.213-4.394 5.712s-4.733 2.247-7.447 2.247c-4.132 0-7.586-1.561-10.361-4.682s-4.163-7.022-4.163-11.704c0-.499.123-.858.37-1.077s.771-.328 1.573-.328h0 29.419c1.48 0 2.374-.265 2.683-.796s.463-1.982.463-4.354c0-6.055-1.881-11.049-5.643-14.981S300.815 50 295.018 50c-6.537 0-11.841 2.372-15.912 7.116S273 68.04 273 75.655c0 7.428 1.912 13.343 5.736 17.743S287.709 100 294.185 100zm11.879-31h-22.035c-1.352 0-2.028-.418-2.028-1.255 0-2.989 1.414-5.693 4.241-8.114S292.203 56 295.645 56c3.319 0 6.208 1.166 8.667 3.497S308 64.577 308 67.745c0 .837-.645 1.255-1.936 1.255h0zm23.436 48c6.375 0 11.688-2.681 15.938-8.044 2.5-3.144 5.156-8.198 7.969-15.164h0l12.75-31.437c1.25-3.144 2.469-4.716 3.656-4.716.313 0 .875.092 1.688.277.313.123.781.185 1.406.185 2.063 0 3.094-.986 3.094-2.959 0-2.034-1.344-3.051-4.031-3.051-1.062 0-2.625.123-4.687.37s-3.625.37-4.687.37c-1 0-1.937-.062-2.812-.185h0l-3.375-.462c-.875-.123-1.5-.185-1.875-.185-2.687 0-4.031 1.048-4.031 3.144 0 1.972 1.031 2.959 3.094 2.959.313 0 .969-.062 1.969-.185.438-.123 1.031-.185 1.781-.185 1.438 0 2.156.524 2.156 1.572 0 .493-.156 1.171-.469 2.034h0l-11.437 30.789-10.781-31.252c-.25-.74-.375-1.356-.375-1.849 0-.863.438-1.294 1.313-1.294.375 0 .969.077 1.781.231s1.406.231 1.781.231c2.375 0 3.563-1.017 3.563-3.051s-1.312-3.051-3.937-3.051c-.625 0-1.906.092-3.844.277-2.562.247-4.969.37-7.219.37-.312 0-.687-.031-1.125-.092h0-.75l-3.75-.462c-.5-.062-1.219-.092-2.156-.092-2.875 0-4.312 1.048-4.312 3.144 0 1.972 1.094 2.959 3.281 2.959.313 0 .953-.092 1.922-.277s1.641-.277 2.016-.277c1.375 0 2.594 1.387 3.656 4.161l1.125 2.959h0l10.313 25.704c1.688 4.192 2.531 7.058 2.531 8.599 0 3.02-1.328 5.748-3.984 8.183s-5.641 3.652-8.953 3.652c-2.625 0-4.406-.678-5.344-2.034 1.813-.555 2.719-1.818 2.719-3.791 0-1.233-.469-2.265-1.406-3.097s-2.125-1.248-3.562-1.248c-1.812 0-3.281.601-4.406 1.803S316 105.288 316 107.199c0 2.712 1.297 5.024 3.891 6.935S325.688 117 329.5 117zm72.08-17c6.553 0 11.761-2.347 15.625-7.041S423 81.97 423 74.075c0-7.212-1.824-12.994-5.471-17.346s-8.562-6.528-14.744-6.528c-3.091 0-5.656.528-7.696 1.585s-4.049 2.891-6.027 5.502c.062-7.088.34-13.211.835-18.372h0v-1.306c0-1.741-.68-2.611-2.04-2.611-.618 0-1.545.109-2.782.326s-2.195.326-2.875.326c-.618 0-1.422-.062-2.411-.187h0l-2.225-.28a15.29 15.29 0 0 0-1.855-.093c-2.473 0-3.709 1.026-3.709 3.077 0 1.989 1.051 2.984 3.153 2.984.495 0 1.082-.062 1.762-.187 1.422-.249 2.225-.373 2.411-.373.989 0 1.685.404 2.086 1.212s.634 2.363.695 4.663h0l.185 24.9-.185 9.419-.278 7.181a119.91 119.91 0 0 0-.093 4.57c-.062.435-.093 1.088-.093 1.958 0 3.109 1.082 4.663 3.245 4.663s3.245-1.119 3.245-3.357c0-.187-.124-1.181-.371-2.984 2.844 4.787 7.449 7.181 13.816 7.181zm.688-7c-5.31 0-8.911-2.24-10.803-6.719-.977-2.27-1.465-6.443-1.465-12.517 0-3.559.214-6.32.641-8.284.61-2.7 2.075-4.955 4.394-6.765S399.948 56 402.817 56c4.089 0 7.309 1.641 9.658 4.924S416 68.732 416 74.5c0 5.645-1.236 10.14-3.708 13.484S406.479 93 402.268 93zm49.404 7c6.755 0 12.165-2.31 16.23-6.929S474 82.335 474 74.719s-1.97-13.639-5.91-18.071S458.77 50 451.953 50c-6.692 0-12.024 2.263-15.996 6.788S430 67.385 430 75s1.97 13.686 5.91 18.212S445.104 100 451.672 100zm.054-7c-4.331 0-7.702-1.641-10.111-4.924S438 80.268 438 74.5h0v-1.197c.244-5.522 1.586-9.787 4.026-12.794S447.821 56 452.092 56C461.364 56 466 62.136 466 74.408c0 5.829-1.266 10.385-3.797 13.668S456.179 93 451.725 93zm97.489-55.672c.007-.034.068.589.185 1.871 0 .062.031.278.093.65h0v1.021l.093 1.021c-4.326-5.26-9.918-7.89-16.777-7.89-8.342 0-15.062 3.094-20.16 9.283S505 57.609 505 67.696c0 9.778 2.487 17.606 7.462 23.485S524.094 100 532.437 100c7.23 0 13.131-2.104 17.704-6.312S557 84.065 557 77.443c0-2.847-1.267-4.27-3.8-4.27-2.348 0-3.522 1.423-3.522 4.27 0 3.032-.371 5.446-1.112 7.241-1.112 2.723-3.043 4.92-5.793 6.591s-5.855 2.506-9.316 2.506c-6.365 0-11.324-2.367-14.877-7.101s-5.33-11.34-5.33-19.819c0-8.293 1.73-14.79 5.191-19.494s8.25-7.055 14.367-7.055c4.696 0 8.497 1.392 11.401 4.177s4.295 6.405 4.171 10.861h0l-.093 3.342c-.062 2.661 1.112 3.992 3.522 3.992 2.225 0 3.337-1.392 3.337-4.177h0v-.928l-.371-3.527c-.185-1.733-.278-3.435-.278-5.105 0-1.176.154-3.311.463-6.405.247-2.475.371-3.961.371-4.456 0-2.599-1.051-3.899-3.152-3.899-1.977 0-2.966 1.052-2.966 3.156l.001-.014zM585.672 100c6.755 0 12.165-2.31 16.23-6.929S608 82.335 608 74.719s-1.97-13.639-5.91-18.071S592.77 50 585.953 50c-6.692 0-12.024 2.263-15.996 6.788S564 67.385 564 75s1.97 13.686 5.91 18.212S579.104 100 585.672 100zm.054-7c-4.331 0-7.702-1.641-10.111-4.924S572 80.268 572 74.5h0v-1.197c.244-5.522 1.586-9.787 4.026-12.794S581.821 56 586.092 56C595.364 56 600 62.136 600 74.408c0 5.829-1.266 10.385-3.797 13.668S590.179 93 585.725 93zm30.681 6c.938 0 2.406-.125 4.406-.374s3.5-.374 4.5-.374c1.188 0 2.875.125 5.063.374s3.781.374 4.781.374c2.563 0 3.844-1.029 3.844-3.088 0-2.121-1.031-3.181-3.094-3.181-.25 0-.75.062-1.5.187-1.187.312-1.969.468-2.344.468-1.625 0-2.469-1.591-2.531-4.772h0l-.094-29.099c0-8.795.219-15.595.656-20.398.063-.312.094-.78.094-1.404 0-1.809-.719-2.713-2.156-2.713-.625 0-1.562.109-2.812.327s-2.187.327-2.812.327c-.687 0-1.531-.062-2.531-.187h0l-2.25-.281a14.63 14.63 0 0 0-1.781-.094c-2.5 0-3.75 1.029-3.75 3.088 0 1.996 1.063 2.994 3.188 2.994.438 0 1-.062 1.688-.187 1.438-.25 2.25-.374 2.438-.374 1.313 0 2.188.717 2.625 2.152.125.624.219 1.871.281 3.743h0l.094 16.655-.281 14.503-.094 6.55c-.062 4.055-.234 6.565-.516 7.532s-.984 1.45-2.109 1.45c-.25 0-1.156-.125-2.719-.374-.187 0-.469-.031-.844-.094h0-.656c-2.125 0-3.187.967-3.187 2.901 0 2.246 1.313 3.368 3.938 3.368h0 .469zm29 0c.938 0 2.406-.125 4.406-.374s3.5-.374 4.5-.374c1.188 0 2.875.125 5.063.374s3.781.374 4.781.374c2.563 0 3.844-1.029 3.844-3.088 0-2.121-1.031-3.181-3.094-3.181-.25 0-.75.062-1.5.187-1.187.312-1.969.468-2.344.468-1.625 0-2.469-1.591-2.531-4.772h0l-.094-29.099c0-8.795.219-15.595.656-20.398.063-.312.094-.78.094-1.404 0-1.809-.719-2.713-2.156-2.713-.625 0-1.562.109-2.812.327s-2.187.327-2.812.327c-.687 0-1.531-.062-2.531-.187h0l-2.25-.281a14.63 14.63 0 0 0-1.781-.094c-2.5 0-3.75 1.029-3.75 3.088 0 1.996 1.063 2.994 3.188 2.994.438 0 1-.062 1.688-.187 1.438-.25 2.25-.374 2.438-.374 1.313 0 2.188.717 2.625 2.152.125.624.219 1.871.281 3.743h0l.094 16.655-.281 14.503-.094 6.55c-.062 4.055-.234 6.565-.516 7.532s-.984 1.45-2.109 1.45c-.25 0-1.156-.125-2.719-.374-.187 0-.469-.031-.844-.094h0-.656c-2.125 0-3.187.967-3.187 2.901 0 2.246 1.313 3.368 3.938 3.368h0 .469zm47.779 1c5.181 0 9.806-1.576 13.877-4.728s6.106-6.757 6.106-10.815c0-2.372-1.141-3.558-3.423-3.558-1.604 0-2.621.749-3.053 2.247h0l-.833 2.715c-.678 2.31-2.143 4.213-4.394 5.712s-4.733 2.247-7.447 2.247c-4.132 0-7.586-1.561-10.361-4.682s-4.163-7.022-4.163-11.704c0-.499.123-.858.37-1.077s.771-.328 1.573-.328h0 29.419c1.48 0 2.374-.265 2.683-.796s.463-1.982.463-4.354c0-6.055-1.881-11.049-5.643-14.981S699.815 50 694.018 50c-6.537 0-11.841 2.372-15.912 7.116S672 68.04 672 75.655c0 7.428 1.912 13.343 5.736 17.743S686.709 100 693.185 100zm11.879-31h-22.035c-1.352 0-2.028-.418-2.028-1.255 0-2.989 1.414-5.693 4.241-8.114S691.203 56 694.645 56c3.319 0 6.208 1.166 8.667 3.497S707 64.577 707 67.745c0 .837-.645 1.255-1.936 1.255h0zm37.858 31c5.776 0 10.476-1.966 14.101-5.899 1.352-1.436 2.519-3.246 3.502-5.431S762 84.613 762 83.052c0-1.061-.338-1.935-1.014-2.622s-1.536-1.03-2.581-1.03c-1.29 0-2.273.624-2.949 1.873-.123.312-.492 1.561-1.106 3.745-.737 2.747-2.104 4.9-4.101 6.461s-4.347 2.341-7.051 2.341c-4.301 0-7.665-1.67-10.092-5.009s-3.641-7.943-3.641-13.811c0-5.68 1.29-10.237 3.871-13.67s5.991-5.15 10.23-5.15c2.765 0 5.023.624 6.774 1.873s2.78 2.965 3.088 5.15c-3.072.375-4.608 1.81-4.608 4.307 0 1.373.507 2.528 1.521 3.464s2.289 1.404 3.825 1.404c1.966 0 3.579-.749 4.839-2.247s1.889-3.402 1.889-5.712c0-4.182-1.628-7.631-4.885-10.346S748.667 50 743.751 50c-6.575 0-11.843 2.325-15.806 6.976S722 67.821 722 75.562c0 7.303 1.92 13.202 5.76 17.697S736.654 100 742.922 100zm43.986-1c5.342 0 9.18-1.789 11.513-5.367C800.14 90.98 801 86.292 801 79.567c0-2.838-1.075-4.257-3.224-4.257s-3.254 1.265-3.316 3.794h0l-.184 5.922c-.184 5.244-2.425 7.866-6.724 7.866-4.237 0-6.355-3.239-6.355-9.716h0V60.412c0-1.296.43-1.943 1.289-1.943h0 10.132c2.518 0 3.776-1.141 3.776-3.424 0-2.159-1.167-3.239-3.5-3.239h0-10.039c-1.105 0-1.658-.463-1.658-1.388h0v-9.901c0-2.344-1.105-3.516-3.316-3.516-2.395 0-3.592 1.172-3.592 3.516h0v9.531c0 1.172-.522 1.758-1.566 1.758h0-3.592c-.798 0-1.52.339-2.164 1.018s-.967 1.45-.967 2.313a3.22 3.22 0 0 0 .967 2.36c.645.648 1.458.972 2.441.972h0 2.947c1.167 0 1.75.648 1.75 1.943h0v22.209c0 5.491.768 9.377 2.303 11.66 2.088 3.146 5.588 4.719 10.5 4.719zM816 47c1.369 0 2.545-.495 3.527-1.486S821 43.336 821 41.955s-.491-2.553-1.473-3.514S817.369 37 816 37s-2.545.48-3.527 1.441S811 40.574 811 41.955s.491 2.568 1.473 3.559S814.631 47 816 47zm10.918 52c1.175 0 2.149-.311 2.923-.934s1.16-1.37 1.16-2.243c0-2.056-1.175-3.083-3.526-3.083-.619 0-1.082.062-1.392.187-1.237.311-2.01.467-2.32.467-1.361 0-2.196-1.402-2.505-4.205-.057-.514-.087-2.101-.092-4.761l-.001-12.899.093-7.849.186-5.793c0-.249.031-.623.093-1.121s.093-.872.093-1.121c0-2.429-.897-3.644-2.691-3.644-.495 0-1.253.078-2.273.234s-1.778.234-2.273.234c-.557 0-1.825-.125-3.804-.374-.495-.062-1.33-.093-2.505-.093-2.722 0-4.082 1.059-4.082 3.177 0 1.993 1.113 2.99 3.34 2.99.433 0 1.098-.109 1.995-.327s1.593-.327 2.088-.327c1.546 0 2.474 1.962 2.784 5.887h0v23.92c-.309 3.987-1.206 5.98-2.691 5.98-.495 0-1.222-.093-2.18-.28s-1.686-.28-2.18-.28c-2.103 0-3.155 1.028-3.155 3.083 0 2.118 1.237 3.177 3.711 3.177.804 0 2.412-.156 4.825-.467 1.979-.249 3.773-.374 5.381-.374.99 0 2.49.14 4.5.42s3.51.42 4.5.42zM859 100c2.673 0 4.569-1.426 5.688-4.279h0l13.148-33.488c1.181-2.977 2.331-4.465 3.45-4.465.373 0 1.026.093 1.958.279.311.124.808.186 1.492.186 2.176 0 3.264-1.023 3.264-3.07s-1.337-3.07-4.01-3.07c-.746 0-1.989.093-3.73.279-2.86.31-4.911.465-6.154.465-.932 0-1.834-.062-2.704-.186h0l-3.916-.558a4.02 4.02 0 0 1-.746-.093h0-.746c-2.984 0-4.476 1.085-4.476 3.256 0 2.047 1.026 3.07 3.077 3.07.497 0 1.228-.109 2.191-.326s1.694-.326 2.191-.326c1.305 0 1.958.682 1.958 2.047 0 .496-.311 1.612-.932 3.349h0l-10.537 29.023-10.91-29.023-.653-2.047c-.249-.806-.373-1.426-.373-1.86 0-.868.497-1.302 1.492-1.302.311 0 1.057.124 2.238.372.311.062.839.093 1.585.093 2.362 0 3.543-.992 3.543-2.977 0-2.109-1.368-3.163-4.103-3.163-.559 0-.995.031-1.305.093h0l-3.077.279c-2.051.186-3.606.279-4.662.279-1.305 0-2.611-.062-3.916-.186h0l-3.916-.372c-.249-.062-.622-.093-1.119-.093-2.86 0-4.289 1.116-4.289 3.349 0 1.922 1.026 2.884 3.077 2.884.435 0 1.088-.093 1.958-.279s1.523-.279 1.958-.279c1.181 0 2.207 1.147 3.077 3.442h0l13.428 34.419C854.617 98.574 856.451 100 859 100zm53.185 0c5.181 0 9.806-1.576 13.877-4.728s6.106-6.757 6.106-10.815c0-2.372-1.141-3.558-3.423-3.558-1.604 0-2.621.749-3.053 2.247h0l-.833 2.715c-.678 2.31-2.143 4.213-4.394 5.712s-4.733 2.247-7.447 2.247c-4.132 0-7.586-1.561-10.361-4.682s-4.163-7.022-4.163-11.704c0-.499.123-.858.37-1.077s.771-.328 1.573-.328h0 29.419c1.48 0 2.374-.265 2.683-.796s.463-1.982.463-4.354c0-6.055-1.881-11.049-5.643-14.981S918.815 50 913.018 50c-6.537 0-11.841 2.372-15.912 7.116S891 68.04 891 75.655c0 7.428 1.912 13.343 5.736 17.743S905.709 100 912.185 100zm10.879-31h-22.035c-1.352 0-2.028-.418-2.028-1.255 0-2.989 1.414-5.693 4.241-8.114S909.203 56 912.645 56c3.319 0 6.208 1.166 8.667 3.497S925 64.577 925 67.745c0 .837-.645 1.255-1.936 1.255h0z" id="A"/></defs><use fill="#7b6f64" href="#A"/></svg>