<svg xmlns="http://www.w3.org/2000/svg" viewBox="0 0 1400 1400" fill-rule="evenodd" xmlns:v="https://vecta.io/nano"><path d="M880 524h418l26 345H843l15.127-141.053C875.422 703.98 884.713 685.998 886 674s-4.223-29.269-16.53-51.813L880 524zm-770 0h418l26 345H73z" fill="#fff"/><path d="M907.565 451.016h354.767c41.237.592 74.751 43.626 77.605 88.692l22.173 332.594c2.854 45.066-31.226 77.014-77.605 77.605H885.392c-46.379.592-80.46-31.226-77.605-77.605l8.773-135.998 33.288-29.316c21.6-19.024 21.245-52.8-.751-71.365L824.4 614.778l5.559-86.156c2.854-46.379 36.369-78.197 77.605-77.605zm-47.536 317.315l-2.216 32.373c-2.339 38.008 25.59 64.083 63.598 63.598h0 327.076c38.008-.485 65.937-26.666 63.598-63.598h0l-2.155-31.28c-9.903 30.816-25.777 61.376-63.038 61.851h0-323.885l-1.126.007c-37.061-.044-52.009-31.042-61.851-62.951h0zm131.516-235.948h-1.33c-7.095 0-12.805 2.273-17.129 6.818s-6.486 10.477-6.486 17.794c0 6.208 1.718 11.419 5.155 15.632s7.705 6.319 12.805 6.319c1.996 0 4.712-.388 8.149-1.164s6.042-1.164 7.816-1.164c5.918 0 8.911 7.258 8.979 21.774l.001.509v92.129c0 15.078-2.993 22.616-8.98 22.616-1.774 0-4.379-.388-7.816-1.164s-6.153-1.164-8.149-1.164c-5.1 0-9.368 2.106-12.805 6.319s-5.155 9.424-5.155 15.632c0 7.317 2.162 13.193 6.486 17.627 4.221 4.329 9.762 6.545 16.624 6.648l.504.004h2.982c4.463-.027 11.673-.581 21.63-1.663 10.2-1.109 17.96-1.663 23.282-1.663 6.86 0 13.232.195 19.118.585l1.171.081 23.614 1.663c9.534.665 18.625.998 27.273.998 27.273 0 48.503-5.82 63.692-17.461s22.783-27.993 22.783-49.058c0-9.313-2.106-18.293-6.319-26.94-5.465-11.149-16.642-20.143-33.53-26.981l-.727-.292-8.315-3.326c27.273-6.43 40.909-21.84 40.909-46.231 0-11.752-3.659-22.228-10.976-31.43s-16.851-15.355-28.603-18.459-24.945-4.656-39.579-4.656c-9.499 0-16.791.21-21.876.631l-.407.035-22.616 1.996c-5.1.443-11.973.665-20.621.665-10.779 0-19.461-.314-26.048-.943l-.559-.055-23.614-2.328c-.197 0-.569-.088-1.117-.263l-.214-.07zm97.118 126.053c13.525 0 24.39 2.772 32.594 8.315s12.306 12.86 12.306 21.951c0 7.982-3.049 14.412-9.146 19.29s-14.024 7.317-23.78 7.317c-12.86 0-21.729-1.608-26.608-4.823-4.782-3.152-7.22-8.808-7.314-16.969l-.003-.493v-24.279c0-3.991.776-6.707 2.328-8.149 1.504-1.396 4.568-2.116 9.193-2.16l.452-.002h9.978zm2.328-84.812c23.06 0 34.59 7.428 34.59 22.284 0 7.095-3.381 12.749-10.144 16.962s-15.909 6.319-27.439 6.319h-10.31c-4.435 0-7.206-.443-8.315-1.33-1.72-1.075-2.606-3.714-2.658-7.916l-.002-.399v-19.623c0-7.317 2.328-12.084 6.984-14.302 3.104-1.33 8.869-1.996 17.295-1.996z" fill="#006994"/><path d="M687.389 569.633v47.118h-68.182c-6.148 0-10.989 5.244-10.499 11.372l6.652 83.149.028.297c.576 5.328 5.079 9.395 10.471 9.395h61.53v57.095c0 9.065 10.691 13.895 17.493 7.904l120.843-106.43c4.828-4.252 4.749-11.802-.168-15.952L704.714 561.585c-6.848-5.78-17.325-.912-17.325 8.048z" fill="#009475"/><path d="M136.945 451.008h354.767c41.237.592 74.751 43.626 77.605 88.692l22.173 332.594c2.854 45.066-31.226 77.014-77.605 77.605H114.772c-46.379.592-80.46-31.226-77.605-77.605L59.34 528.613c2.854-46.379 36.369-78.197 77.605-77.605zM89.409 768.323l-2.216 32.373c-2.339 38.008 25.59 64.083 63.598 63.598h0 327.076c38.008-.485 65.937-26.666 63.598-63.598h0l-2.155-31.28c-9.903 30.816-25.777 61.376-63.038 61.851h0-323.885l-1.126.007c-37.061-.044-52.009-31.042-61.851-62.951h0zm336.006-235.608c-3.991 0-8.758.443-14.302 1.33-8.204 1.33-14.634 1.996-19.29 1.996-4.089 0-10.006-.522-17.75-1.567l-.709-.096c-8.093-1.109-14.246-1.663-18.459-1.663-6.43 0-11.641 1.774-15.632 5.322s-5.987 8.204-5.987 13.969c0 5.1 2.106 9.202 6.319 12.306 1.996 1.109 3.437 2.106 4.324 2.993s1.33 2.217 1.33 3.991c0 3.268-3.745 8.354-11.236 15.26l-.405.372-48.226 44.568v-47.561c.665-4.656 2.772-6.984 6.319-6.984 1.647 0 2.912.096 3.794.287l.197.046h2.993c9.756 0 14.634-6.652 14.634-19.956 0-7.539-1.996-13.525-5.987-17.96s-9.313-6.652-15.965-6.652c-4.213 0-10.532.554-18.958 1.663s-14.745 1.663-18.958 1.663c-5.322 0-13.027-.554-23.115-1.663s-17.572-1.663-22.45-1.663c-7.317 0-13.137 2.162-17.461 6.486s-6.486 10.255-6.486 17.794c0 6.208 1.718 11.419 5.155 15.632s7.705 6.319 12.805 6.319c1.996 0 4.712-.388 8.149-1.164s6.042-1.164 7.816-1.164c4.435 0 7.206 2.882 8.315 8.647.433 1.947.654 6.321.665 13.122v92.643c0 15.078-2.993 22.616-8.98 22.616-1.689 0-4.133-.352-7.331-1.056l-.485-.108c-3.437-.776-6.042-1.164-7.816-1.164-5.322 0-9.701 2.051-13.137 6.153s-5.155 9.368-5.155 15.798c0 7.317 2.217 13.193 6.652 17.627s10.2 6.652 17.295 6.652c4.878 0 12.14-.554 21.785-1.663s17.018-1.663 22.118-1.663c4.435 0 8.315.111 11.641.333 2.439.222 7.095.776 13.969 1.663 5.987.887 10.532 1.33 13.636 1.33 6.874 0 12.306-2.217 16.297-6.652s5.987-10.31 5.987-17.627c0-13.747-4.878-20.621-14.634-20.621-1.22 0-2.16.093-2.82.279l-.173.053h-1.996c-.887.222-1.441.333-1.663.333-3.684 0-5.885-2.224-6.604-6.671l-.048-.314v-22.949l19.623-16.297 3.326-3.326c1.109-1.109 2.328-1.663 3.659-1.663 1.523 0 4.22 3.415 8.09 10.245l.225.398 17.627 30.599c3.548 6.208 5.322 10.532 5.322 12.971 0 2.661-1.441 5.1-4.324 7.317-6.208 5.1-9.313 10.2-9.313 15.299 0 5.322 1.996 9.756 5.987 13.304s8.869 5.322 14.634 5.322c3.991 0 9.922-.554 17.794-1.663s13.803-1.663 17.794-1.663c6.874 0 14.634.665 23.282 1.996 5.765.887 10.754 1.33 14.967 1.33 7.317 0 13.193-2.217 17.627-6.652s6.652-10.31 6.652-17.627c0-14.634-5.987-21.951-17.96-21.951-1.774 0-4.268.388-7.483 1.164s-5.488 1.164-6.818 1.164c-5.04 0-11.812-7.254-20.316-21.763l-.304-.521-23.614-40.244-8.647-15.299c-2.439-4.213-3.659-6.984-3.659-8.315 0-2.393 3.202-6.387 9.605-11.981l.373-.325 32.262-28.271 5.987-4.656c4.878-3.769 8.647-5.654 11.308-5.654 1.552 0 3.714.388 6.486 1.164s4.933 1.164 6.486 1.164c4.656 0 8.703-2.273 12.14-6.818s5.155-10.033 5.155-16.463c0-7.095-2.162-12.694-6.486-16.796s-10.144-6.153-17.461-6.153z" fill="#be5103"/></svg>