<svg xmlns="http://www.w3.org/2000/svg" width="940" height="150" xmlns:v="https://vecta.io/nano"><defs><path d="M141.081 50.616c.013-.196.119 1.025.319 3.664l.16 4.16-.24 4.88-.16 3.6c0 2.453.987 3.68 2.96 3.68 2.08 0 3.12-1.68 3.12-5.04l-.08-2h0l-.32-2.96c-.053-.48-.08-1.387-.08-2.72 0-3.733 1.92-5.6 5.76-5.6h0H155c3.893 0 5.84 1.893 5.84 5.68h0l.08 13.04v6.8l-.08 7.04v5.6c0 4-1.333 6-4 6-.427 0-1.067-.067-1.92-.2s-1.493-.2-1.92-.2c-1.707 0-2.56.853-2.56 2.56 0 1.867 1.173 2.8 3.52 2.8h0 .56a2.35 2.35 0 0 1 .56-.08h0l4-.56c1.547-.213 3.333-.32 5.36-.32 1.867 0 3.547.107 5.04.32h0l3.92.56c.107 0 .293.027.56.08h0 .48c2.4 0 3.6-.933 3.6-2.8 0-.693-.253-1.293-.76-1.8s-1.107-.76-1.8-.76c-.427 0-1.067.067-1.92.2s-1.493.2-1.92.2c-2.72 0-4.08-2-4.08-6h0l.08-27.2.24-5.6c.107-1.92.587-3.293 1.44-4.12s2.267-1.24 4.24-1.24h0 2.24c4.213 0 6.32 1.84 6.32 5.52 0 .96-.08 2.387-.24 4.28l-.24 4.28c0 2.667 1.013 4 3.04 4 2.08 0 3.12-1.093 3.12-3.28 0-.533-.107-1.92-.32-4.16l-.24-3.76h0v-.88l.44-4.64.2-2.96h0v-.16c0-2.187-1.333-3.28-4-3.28l-5.12.24-5.2.24-8.339.159-.221.001-9.12-.16-6.56-.16-5.2-.24c-2.027 0-3.04 1.12-3.04 3.36l.001-.064zm52.959 50.704c.587 0 1.947-.107 4.08-.32l3.76-.24c1.44 0 3.173.107 5.2.32l3.36.24c2.347 0 3.52-.933 3.52-2.8 0-1.653-.853-2.48-2.56-2.48-.373 0-.947.093-1.72.28s-1.373.28-1.8.28c-1.28 0-2.053-1.307-2.32-3.92-.047-.427-.074-1.865-.079-4.314l-.001-2.486.08-1.6h0l.08-5.76c.053-4.373.747-7.547 2.08-9.52 1.92-2.88 4.987-4.32 9.2-4.32 3.893 0 6.613 1.387 8.16 4.16 1.067 1.867 1.6 5.52 1.6 10.96h0v4.32l-.08 3.44-.08 3.76c-.053 3.467-.88 5.2-2.48 5.2-.427 0-.88-.08-1.36-.24-.8-.267-1.493-.4-2.08-.4-.747 0-1.4.24-1.96.72s-.84 1.067-.84 1.76c0 .853.32 1.56.96 2.12s1.44.84 2.4.84c.533 0 1.92-.16 4.16-.48.747-.107 1.813-.16 3.2-.16s3.2.133 5.44.4c1.333.16 2.347.24 3.04.24 2.56 0 3.84-.88 3.84-2.64s-.987-2.64-2.96-2.64c-.533 0-.96.027-1.28.08-.8.213-1.413.32-1.84.32-1.173 0-1.867-1.333-2.08-4-.048-.286-.074-1.698-.079-4.237L232.6 73.88c0-4.267-1.387-7.707-4.16-10.32s-6.453-3.92-11.04-3.92c-2.4 0-4.48.387-6.24 1.16s-3.707 2.173-5.84 4.2h0l.32-15.52v-.16c0-1.76-.613-2.64-1.84-2.64-.373 0-.987.053-1.84.16s-1.52.16-2 .16c-1.173 0-2.267-.053-3.28-.16l-2.72-.24c-.907 0-1.68.267-2.32.8s-.96 1.173-.96 1.92c0 1.707.907 2.56 2.72 2.56.427 0 1.013-.08 1.76-.24s1.307-.24 1.68-.24c1.173 0 1.92 1.053 2.24 3.16s.48 7.16.48 15.16h0l-.08 14.32c-.053 5.013-.227 8.333-.52 9.96s-.867 2.44-1.72 2.44c-.373 0-1.013-.08-1.92-.24-.32-.107-.827-.16-1.52-.16-2.027 0-3.04.8-3.04 2.4 0 1.92 1.093 2.88 3.28 2.88zm68.32 1.04c4.48 0 8.48-1.347 12-4.04s5.28-5.773 5.28-9.24c0-2.027-.987-3.04-2.96-3.04-1.387 0-2.267.64-2.64 1.92h0l-.72 2.32c-.587 1.973-1.853 3.6-3.8 4.88s-4.093 1.92-6.44 1.92c-3.573 0-6.56-1.333-8.96-4s-3.6-6-3.6-10c0-.427.107-.733.32-.92s.667-.28 1.36-.28h0 25.44c1.28 0 2.053-.227 2.32-.68s.4-1.693.4-3.72c0-5.173-1.627-9.44-4.88-12.8s-7.387-5.04-12.4-5.04c-5.653 0-10.24 2.027-13.76 6.08s-5.28 9.333-5.28 15.84c0 6.347 1.653 11.4 4.96 15.16s7.76 5.64 13.36 5.64zm9.84-25.84h-19.12c-1.173 0-1.76-.373-1.76-1.12 0-2.667 1.227-5.08 3.68-7.24s5.173-3.24 8.16-3.24c2.88 0 5.387 1.04 7.52 3.12s3.2 4.533 3.2 7.36c0 .747-.56 1.12-1.68 1.12h0zm36.56 24.88c.213-.053.373-.08.48-.08h0l4.4-.64c1.12-.16 2.533-.24 4.24-.24 2.347 0 4.08.08 5.2.24h0l4.48.64a2.35 2.35 0 0 1 .56.08h0 .56c2.347 0 3.52-.933 3.52-2.8 0-.747-.24-1.373-.72-1.88a2.33 2.33 0 0 0-1.76-.76c-.587 0-1.307.08-2.16.24s-1.44.24-1.76.24c-2.24 0-3.573-1.52-4-4.56-.049-.293-.075-2.391-.079-6.294l-.001-1.146c0-1.227.027-2.32.08-3.28h0l8.4-7.36c.48-.427.827-.64 1.04-.64.267 0 .56.213.88.64h0L347 94.04c.48.64.72 1.147.72 1.52 0 .533-.64.8-1.92.8-.32 0-1.52-.107-3.6-.32-1.067-.107-1.893-.16-2.48-.16-2.08 0-3.12.96-3.12 2.88 0 1.76.987 2.64 2.96 2.64.267 0 1.44-.107 3.52-.32 3.147-.32 6.16-.48 9.04-.48 2.507 0 4.747.107 6.72.32l4 .48c2.08 0 3.12-.907 3.12-2.72s-.96-2.72-2.88-2.72c-.32 0-1.2.08-2.64.24h0-.4c-.213.053-.373.08-.48.08-1.707 0-4.267-2.32-7.68-6.96h0l-12.8-17.44-1.2-1.84c-.533-.64-.8-1.093-.8-1.36 0-.427.32-.907.96-1.44h0l15.12-12.64c1.6-1.333 3.413-2 5.44-2 .533 0 .933.027 1.2.08h0 .88c.373.053.64.08.8.08 1.867 0 2.8-.907 2.8-2.72s-1.013-2.72-3.04-2.72c-.693 0-1.76.107-3.2.32-2.827.427-5.2.64-7.12.64-.96 0-2.373-.107-4.24-.32h0l-4.24-.48c-.96-.107-2.053-.16-3.28-.16-2.293 0-3.44.88-3.44 2.64 0 1.867.96 2.8 2.88 2.8.907 0 2.32-.107 4.24-.32.16-.053.453-.08.88-.08 1.013 0 1.52.293 1.52.88 0 .427-.293.88-.88 1.36h0L321.8 73.8l-.08-9.92c-.053-5.067.16-8.253.64-9.56s1.653-1.96 3.52-1.96c.747 0 1.307.053 1.68.16.907.16 1.627.24 2.16.24a2.33 2.33 0 0 0 1.76-.76c.48-.507.72-1.133.72-1.88 0-1.867-1.12-2.8-3.36-2.8-.427 0-2.08.16-4.96.48s-5.04.48-6.48.48c-1.173 0-2.613-.107-4.32-.32h0l-3.84-.48c-.427-.053-.773-.08-1.04-.08-2.4 0-3.6.933-3.6 2.8 0 1.76.853 2.64 2.56 2.64.48 0 1.2-.08 2.16-.24.587-.16 1.147-.24 1.68-.24 2.667 0 4 2 4 6h0l.08 5.6h0v20.88l-.079 5.58-.001.02c0 4-1.333 6-4 6-.48 0-1.04-.053-1.68-.16-.96-.16-1.68-.24-2.16-.24-1.653 0-2.48.853-2.48 2.56 0 1.867 1.2 2.8 3.6 2.8h0 .48zm78.48.96c4.48 0 8.48-1.347 12-4.04s5.28-5.773 5.28-9.24c0-2.027-.987-3.04-2.96-3.04-1.387 0-2.267.64-2.64 1.92h0l-.72 2.32c-.587 1.973-1.853 3.6-3.8 4.88s-4.093 1.92-6.44 1.92c-3.573 0-6.56-1.333-8.96-4s-3.6-6-3.6-10c0-.427.107-.733.32-.92s.667-.28 1.36-.28h0 25.44c1.28 0 2.053-.227 2.32-.68s.4-1.693.4-3.72c0-5.173-1.627-9.44-4.88-12.8s-7.387-5.04-12.4-5.04c-5.653 0-10.24 2.027-13.76 6.08s-5.28 9.333-5.28 15.84c0 6.347 1.653 11.4 4.96 15.16s7.76 5.64 13.36 5.64zm9.84-25.84h-19.12c-1.173 0-1.76-.373-1.76-1.12 0-2.667 1.227-5.08 3.68-7.24s5.173-3.24 8.16-3.24c2.88 0 5.387 1.04 7.52 3.12s3.2 4.533 3.2 7.36c0 .747-.56 1.12-1.68 1.12h0zm20.4 40.72c5.44 0 9.973-2.32 13.6-6.96 2.133-2.72 4.4-7.093 6.8-13.12h0l10.88-27.2c1.067-2.72 2.107-4.08 3.12-4.08.267 0 .747.08 1.44.24.267.107.667.16 1.2.16 1.76 0 2.64-.853 2.64-2.56 0-1.76-1.147-2.64-3.44-2.64-.907 0-2.24.107-4 .32s-3.093.32-4 .32c-.853 0-1.653-.053-2.4-.16h0l-2.88-.4c-.747-.107-1.28-.16-1.6-.16-2.293 0-3.44.907-3.44 2.72 0 1.707.88 2.56 2.64 2.56.267 0 .827-.053 1.68-.16.373-.107.88-.16 1.52-.16 1.227 0 1.84.453 1.84 1.36 0 .427-.133 1.013-.4 1.76h0l-9.76 26.64-9.2-27.04c-.213-.64-.32-1.173-.32-1.6 0-.747.373-1.12 1.12-1.12.32 0 .827.067 1.52.2s1.2.2 1.52.2c2.027 0 3.04-.88 3.04-2.64s-1.12-2.64-3.36-2.64c-.533 0-1.627.08-3.28.24-2.187.213-4.24.32-6.16.32a6.94 6.94 0 0 1-.96-.08h0-.64l-3.2-.4c-.427-.053-1.04-.08-1.84-.08-2.453 0-3.68.907-3.68 2.72 0 1.707.933 2.56 2.8 2.56.267 0 .813-.08 1.64-.24s1.4-.24 1.72-.24c1.173 0 2.213 1.2 3.12 3.6l.96 2.56h0l8.8 22.24c1.44 3.627 2.16 6.107 2.16 7.44 0 2.613-1.133 4.973-3.4 7.08s-4.813 3.16-7.64 3.16c-2.24 0-3.76-.587-4.56-1.76 1.547-.48 2.32-1.573 2.32-3.28 0-1.067-.4-1.96-1.2-2.68s-1.813-1.08-3.04-1.08c-1.547 0-2.8.52-3.76 1.56s-1.44 2.387-1.44 4.04c0 2.347 1.107 4.347 3.32 6s4.947 2.48 8.2 2.48zm62.24-14.88c5.653 0 10.147-2.013 13.48-6.04s5-9.427 5-16.2c0-6.187-1.573-11.147-4.72-14.88s-7.387-5.6-12.72-5.6c-2.667 0-4.88.453-6.64 1.36s-3.493 2.48-5.2 4.72c.053-6.08.293-11.333.72-15.76h0v-1.12c0-1.493-.587-2.24-1.76-2.24-.533 0-1.333.093-2.4.28s-1.893.28-2.48.28c-.533 0-1.227-.053-2.08-.16h0l-1.92-.24c-.427-.053-.96-.08-1.6-.08-2.133 0-3.2.88-3.2 2.64 0 1.707.907 2.56 2.72 2.56.427 0 .933-.053 1.52-.16 1.227-.213 1.92-.32 2.08-.32.853 0 1.453.347 1.8 1.04s.547 2.027.6 4h0l.16 21.36-.16 8.08-.24 6.16a102.28 102.28 0 0 0-.08 3.92c-.053.373-.08.933-.08 1.68 0 2.667.933 4 2.8 4s2.8-.96 2.8-2.88c0-.16-.107-1.013-.32-2.56 2.453 4.107 6.427 6.16 11.92 6.16zm0-5.28c-4.64 0-7.787-1.947-9.44-5.84-.853-1.973-1.28-5.6-1.28-10.88 0-3.093.187-5.493.56-7.2.533-2.347 1.813-4.307 3.84-5.88s4.293-2.36 6.8-2.36c3.573 0 6.387 1.427 8.44 4.28s3.08 6.787 3.08 11.8c0 4.907-1.08 8.813-3.24 11.72s-5.08 4.36-8.76 4.36zm43.04 5.28c5.76 0 10.373-1.973 13.84-5.92s5.2-9.173 5.2-15.68-1.68-11.653-5.04-15.44-7.947-5.68-13.76-5.68c-5.707 0-10.253 1.933-13.64 5.8s-5.08 9.053-5.08 15.56 1.68 11.693 5.04 15.56 7.84 5.8 13.44 5.8zm.08-5.28c-3.787 0-6.733-1.427-8.84-4.28s-3.16-6.787-3.16-11.8h0v-1.04c.213-4.8 1.387-8.507 3.52-11.12s5.067-3.92 8.8-3.92c8.107 0 12.16 5.333 12.16 16 0 5.067-1.107 9.027-3.32 11.88s-5.267 4.28-9.16 4.28zm83.281-48.332c.006-.03.059.508.159 1.612 0 .053.027.24.08.56h0v.88l.08.88c-3.733-4.533-8.56-6.8-14.48-6.8-7.2 0-13 2.667-17.4 8s-6.6 12.347-6.6 21.04c0 8.427 2.147 15.173 6.44 20.24s10.04 7.6 17.24 7.6c6.24 0 11.333-1.813 15.28-5.44s5.92-8.293 5.92-14c0-2.453-1.093-3.68-3.28-3.68-2.027 0-3.04 1.227-3.04 3.68 0 2.613-.32 4.693-.96 6.24-.96 2.347-2.627 4.24-5 5.68s-5.053 2.16-8.04 2.16c-5.493 0-9.773-2.04-12.84-6.12s-4.6-9.773-4.6-17.08c0-7.147 1.493-12.747 4.48-16.8s7.12-6.08 12.4-6.08c4.053 0 7.333 1.2 9.84 3.6s3.707 5.52 3.6 9.36h0l-.08 2.88c-.053 2.293.96 3.44 3.04 3.44 1.92 0 2.88-1.2 2.88-3.6h0v-.8l-.32-3.04a41.29 41.29 0 0 1-.24-4.4c0-1.013.133-2.853.4-5.52.213-2.133.32-3.413.32-3.84 0-2.24-.907-3.36-2.72-3.36-1.707 0-2.56.907-2.56 2.72l.001-.012zM637.4 102.36c5.76 0 10.373-1.973 13.84-5.92s5.2-9.173 5.2-15.68-1.68-11.653-5.04-15.44-7.947-5.68-13.76-5.68c-5.707 0-10.253 1.933-13.64 5.8s-5.08 9.053-5.08 15.56 1.68 11.693 5.04 15.56 7.84 5.8 13.44 5.8zm.08-5.28c-3.787 0-6.733-1.427-8.84-4.28s-3.16-6.787-3.16-11.8h0v-1.04c.213-4.8 1.387-8.507 3.52-11.12s5.067-3.92 8.8-3.92c8.107 0 12.16 5.333 12.16 16 0 5.067-1.107 9.027-3.32 11.88s-5.267 4.28-9.16 4.28zm26.56 4.24c.8 0 2.053-.107 3.76-.32s2.987-.32 3.84-.32c1.013 0 2.453.107 4.32.32s3.227.32 4.08.32c2.187 0 3.28-.88 3.28-2.64 0-1.813-.88-2.72-2.64-2.72-.213 0-.64.053-1.28.16-1.013.267-1.68.4-2 .4-1.387 0-2.107-1.36-2.16-4.08h0l-.08-24.88c0-7.52.187-13.333.56-17.44.053-.267.08-.667.08-1.2 0-1.547-.613-2.32-1.84-2.32-.533 0-1.333.093-2.4.28s-1.867.28-2.4.28c-.587 0-1.307-.053-2.16-.16h0l-1.92-.24a12.46 12.46 0 0 0-1.52-.08c-2.133 0-3.2.88-3.2 2.64 0 1.707.907 2.56 2.72 2.56.373 0 .853-.053 1.44-.16 1.227-.213 1.92-.32 2.08-.32 1.12 0 1.867.613 2.24 1.84.107.533.187 1.6.24 3.2h0l.08 14.24-.24 12.4-.08 5.6c-.053 3.467-.2 5.613-.44 6.44s-.84 1.24-1.8 1.24c-.213 0-.987-.107-2.32-.32-.16 0-.4-.027-.72-.08h0-.56c-1.813 0-2.72.827-2.72 2.48 0 1.92 1.12 2.88 3.36 2.88h0 .4zm24.72 0c.8 0 2.053-.107 3.76-.32s2.987-.32 3.84-.32c1.013 0 2.453.107 4.32.32s3.227.32 4.08.32c2.187 0 3.28-.88 3.28-2.64 0-1.813-.88-2.72-2.64-2.72-.213 0-.64.053-1.28.16-1.013.267-1.68.4-2 .4-1.387 0-2.107-1.36-2.16-4.08h0l-.08-24.88c0-7.52.187-13.333.56-17.44.053-.267.08-.667.08-1.2 0-1.547-.613-2.32-1.84-2.32-.533 0-1.333.093-2.4.28s-1.867.28-2.4.28c-.587 0-1.307-.053-2.16-.16h0l-1.92-.24a12.46 12.46 0 0 0-1.52-.08c-2.133 0-3.2.88-3.2 2.64 0 1.707.907 2.56 2.72 2.56.373 0 .853-.053 1.44-.16 1.227-.213 1.92-.32 2.08-.32 1.12 0 1.867.613 2.24 1.84.107.533.187 1.6.24 3.2h0l.08 14.24-.24 12.4-.08 5.6c-.053 3.467-.2 5.613-.44 6.44s-.84 1.24-1.8 1.24c-.213 0-.987-.107-2.32-.32-.16 0-.4-.027-.72-.08h0-.56c-1.813 0-2.72.827-2.72 2.48 0 1.92 1.12 2.88 3.36 2.88h0 .4zm41.68 1.04c4.48 0 8.48-1.347 12-4.04s5.28-5.773 5.28-9.24c0-2.027-.987-3.04-2.96-3.04-1.387 0-2.267.64-2.64 1.92h0l-.72 2.32c-.587 1.973-1.853 3.6-3.8 4.88s-4.093 1.92-6.44 1.92c-3.573 0-6.56-1.333-8.96-4s-3.6-6-3.6-10c0-.427.107-.733.32-.92s.667-.28 1.36-.28h0 25.44c1.28 0 2.053-.227 2.32-.68s.4-1.693.4-3.72c0-5.173-1.627-9.44-4.88-12.8s-7.387-5.04-12.4-5.04c-5.653 0-10.24 2.027-13.76 6.08s-5.28 9.333-5.28 15.84c0 6.347 1.653 11.4 4.96 15.16s7.76 5.64 13.36 5.64zm9.84-25.84h-19.12c-1.173 0-1.76-.373-1.76-1.12 0-2.667 1.227-5.08 3.68-7.24s5.173-3.24 8.16-3.24c2.88 0 5.387 1.04 7.52 3.12s3.2 4.533 3.2 7.36c0 .747-.56 1.12-1.68 1.12h0zm32.24 25.84c5.013 0 9.093-1.68 12.24-5.04 1.173-1.227 2.187-2.773 3.04-4.64s1.28-3.467 1.28-4.8c0-.907-.293-1.653-.88-2.24s-1.333-.88-2.24-.88c-1.12 0-1.973.533-2.56 1.6-.107.267-.427 1.333-.96 3.2-.64 2.347-1.827 4.187-3.56 5.52s-3.773 2-6.12 2c-3.733 0-6.653-1.427-8.76-4.28s-3.16-6.787-3.16-11.8c0-4.853 1.12-8.747 3.36-11.68s5.2-4.4 8.88-4.4c2.4 0 4.36.533 5.88 1.6s2.413 2.533 2.68 4.4c-2.667.32-4 1.547-4 3.68a3.84 3.84 0 0 0 1.32 2.96c.88.8 1.987 1.2 3.32 1.2 1.707 0 3.107-.64 4.2-1.92s1.64-2.907 1.64-4.88c0-3.573-1.413-6.52-4.24-8.84s-6.373-3.48-10.64-3.48c-5.707 0-10.28 1.987-13.72 5.96s-5.16 9.267-5.16 15.88c0 6.24 1.667 11.28 5 15.12s7.72 5.76 13.16 5.76zm38.24-.32c4.64 0 7.973-1.547 10-4.64 1.493-2.293 2.24-6.347 2.24-12.16 0-2.453-.933-3.68-2.8-3.68s-2.827 1.093-2.88 3.28h0l-.16 5.12c-.16 4.533-2.107 6.8-5.84 6.8-3.68 0-5.52-2.8-5.52-8.4h0V68.68c0-1.12.373-1.68 1.12-1.68h0 8.8c2.187 0 3.28-.987 3.28-2.96 0-1.867-1.013-2.8-3.04-2.8h0-8.72c-.96 0-1.44-.4-1.44-1.2h0v-8.56c0-2.027-.96-3.04-2.88-3.04-2.08 0-3.12 1.013-3.12 3.04h0v8.24c0 1.013-.453 1.52-1.36 1.52h0-3.12c-.693 0-1.32.293-1.88.88s-.84 1.253-.84 2c0 .8.28 1.48.84 2.04s1.267.84 2.12.84h0 2.56c1.013 0 1.52.56 1.52 1.68h0v19.2c0 4.747.667 8.107 2 10.08 1.813 2.72 4.853 4.08 9.12 4.08zm25.2-45.2a4.31 4.31 0 0 0 3.16-1.32 4.31 4.31 0 0 0 1.32-3.16 4.18 4.18 0 0 0-1.32-3.12c-.88-.853-1.933-1.28-3.16-1.28s-2.28.427-3.16 1.28a4.18 4.18 0 0 0-1.32 3.12 4.31 4.31 0 0 0 1.32 3.16 4.31 4.31 0 0 0 3.16 1.32zm9.12 44.48c1.013 0 1.853-.267 2.52-.8s1-1.173 1-1.92c0-1.76-1.013-2.64-3.04-2.64-.533 0-.933.053-1.2.16-1.067.267-1.733.4-2 .4-1.173 0-1.893-1.2-2.16-3.6-.049-.44-.075-1.799-.079-4.076L840.12 77.8l.08-6.72.16-4.96c0-.213.027-.533.08-.96s.08-.747.08-.96c0-2.08-.773-3.12-2.32-3.12-.427 0-1.08.067-1.96.2s-1.533.2-1.96.2c-.48 0-1.573-.107-3.28-.32-.427-.053-1.147-.08-2.16-.08-2.347 0-3.52.907-3.52 2.72 0 1.707.96 2.56 2.88 2.56.373 0 .947-.093 1.72-.28s1.373-.28 1.8-.28c1.333 0 2.133 1.68 2.4 5.04h0v20.48c-.267 3.413-1.04 5.12-2.32 5.12-.427 0-1.053-.08-1.88-.24s-1.453-.24-1.88-.24c-1.813 0-2.72.88-2.72 2.64 0 1.813 1.067 2.72 3.2 2.72.693 0 2.08-.133 4.16-.4 1.707-.213 3.253-.32 4.64-.32.853 0 2.147.12 3.88.36s3.027.36 3.88.36zm27.76.96c2.293 0 3.92-1.227 4.88-3.68h0L889 69.8c1.013-2.56 2-3.84 2.96-3.84.32 0 .88.08 1.68.24.267.107.693.16 1.28.16 1.867 0 2.8-.88 2.8-2.64s-1.147-2.64-3.44-2.64c-.64 0-1.707.08-3.2.24-2.453.267-4.213.4-5.28.4-.8 0-1.573-.053-2.32-.16h0l-3.36-.48c-.16 0-.373-.027-.64-.08h0-.64c-2.56 0-3.84.933-3.84 2.8 0 1.76.88 2.64 2.64 2.64.427 0 1.053-.093 1.88-.28s1.453-.28 1.88-.28c1.12 0 1.68.587 1.68 1.76 0 .427-.267 1.387-.8 2.88h0l-9.04 24.96-9.36-24.96-.56-1.76c-.213-.693-.32-1.227-.32-1.6 0-.747.427-1.12 1.28-1.12.267 0 .907.107 1.92.32.267.053.72.08 1.36.08 2.027 0 3.04-.853 3.04-2.56 0-1.813-1.173-2.72-3.52-2.72-.48 0-.853.027-1.12.08h0l-2.64.24c-1.76.16-3.093.24-4 .24a35.42 35.42 0 0 1-3.36-.16h0l-3.36-.32c-.213-.053-.533-.08-.96-.08-2.453 0-3.68.96-3.68 2.88 0 1.653.88 2.48 2.64 2.48.373 0 .933-.08 1.68-.24s1.307-.24 1.68-.24c1.013 0 1.893.987 2.64 2.96h0l11.52 29.6c.96 2.453 2.533 3.68 4.72 3.68zm45.52.08c4.48 0 8.48-1.347 12-4.04s5.28-5.773 5.28-9.24c0-2.027-.987-3.04-2.96-3.04-1.387 0-2.267.64-2.64 1.92h0l-.72 2.32c-.587 1.973-1.853 3.6-3.8 4.88s-4.093 1.92-6.44 1.92c-3.573 0-6.56-1.333-8.96-4s-3.6-6-3.6-10c0-.427.107-.733.32-.92s.667-.28 1.36-.28h0 25.44c1.28 0 2.053-.227 2.32-.68s.4-1.693.4-3.72c0-5.173-1.627-9.44-4.88-12.8s-7.387-5.04-12.4-5.04c-5.653 0-10.24 2.027-13.76 6.08s-5.28 9.333-5.28 15.84c0 6.347 1.653 11.4 4.96 15.16s7.76 5.64 13.36 5.64zm9.84-25.84h-19.12c-1.173 0-1.76-.373-1.76-1.12 0-2.667 1.227-5.08 3.68-7.24s5.173-3.24 8.16-3.24c2.88 0 5.387 1.04 7.52 3.12s3.2 4.533 3.2 7.36c0 .747-.56 1.12-1.68 1.12h0z" id="A"/></defs><g fill="none" fill-rule="nonzero"><use fill="#fff" href="#A"/><use fill="#7b6f64" href="#A"/><g transform="matrix(1 0 0 -1 3 149)"><g fill="#000"><path d="M137.874 144.145l-2.738-3.227c-.181-.284-.594-.491-.904-.491-.904 0-1.705-.697-1.886-1.678-.207-1.162-.904-1.627-3.952-2.685-8.11-2.789-18.468-8.779-27.198-15.724-5.889-4.648-13.948-13.065-20.792-21.611-3.487-4.389-11.545-15.311-14.903-20.243-.646-.93-.878-1.084-1.421-.955-6.69 1.472-10.564 1.833-17.202 1.627-11.778-.387-22.239-3.098-31.201-8.082C8.343 66.969 2.815 62.27.904 58.474.155 56.977 0 56.435 0 54.989c0-2.453.62-4.002 2.325-5.706 2.04-2.066 2.97-2.453 5.811-2.453 2.015 0 2.505.103 3.797.723.801.387 2.144 1.343 2.996 2.091 1.188 1.059 2.04 1.549 3.823 2.195 5.398 1.962 9.815 2.711 15.73 2.711 5.682-.026 9.118-.62 13.121-2.272.852-.387.93-.465.646-.93-.491-.775.801-3.073 2.944-5.241l1.731-1.782-.878-1.756c-1.731-3.434-3.409-7.823-5.037-13.168-.62-1.988-1.111-3.047-1.834-3.95-1.601-2.014-2.118-3.382-2.247-5.784-.103-2.014-.052-2.272.697-3.821.465-.904 1.24-1.988 1.731-2.401l.904-.749-.542-.671c-1.421-1.782-1.731-5.293-.672-7.565C46.776.715 50.78-.911 54.68.509c3.771 1.42 9.763 9.657 13.354 18.358 2.505 6.093 4.882 13.891 6.845 22.334.801 3.434 2.195 11.619 2.505 14.537l.155 1.678 10.512 10.586c21.696 21.844 28.076 29.822 35.928 44.927 3.384 6.507 7.103 15.724 8.394 20.914.491 1.988 1.033 2.943 2.015 3.46.697.361 1.369 1.627 1.111 2.04-.077.129.697 1.214 1.705 2.401 2.609 3.073 3.823 4.622 3.823 4.906 0 .749-1.033-.077-3.151-2.505z"/><path d="M134.781 139.027c.047-.387-.117-.628-.63-.918-.396-.193-1.003-.798-1.329-1.329-.63-.991-.886-1.16-1.142-.725-.07.121.233.628.676 1.112s.933 1.257 1.096 1.716c.187.653.373.798.746.749.326-.048.536-.266.583-.604z"/></g><path d="M130.858 135.392c.259-.231.466-.564.466-.718 0-.564-2.226-6.819-3.624-10.255-.751-1.82-2.174-4.999-3.184-7.05l-1.786-3.717-.362 1.384c-.595 2.179-1.631 3.871-3.598 5.794-2.562 2.487-5.591 4.102-8.076 4.281-.466.026-.854.128-.854.231 0 .333 7.868 4.897 11.518 6.666 2.977 1.436 8.49 3.794 8.904 3.82.078 0 .336-.179.595-.436zm-18.593-11.33c.052-.05-1.504-1.611-3.476-3.449l-4.825-4.557c-1.089-1.032-1.323-1.158-1.79-.906-.311.151-1.427.327-2.516.403l-1.945.151.648.529c3.995 3.172 7.185 5.64 8.897 6.823 2.049 1.435 2.075 1.435 3.502 1.259.778-.101 1.479-.201 1.504-.252z" fill="#dc3545"/><path d="M114.53 122.93c1.374-.74 5.013-3.83 5.013-4.264 0-.153-3.639-5.106-4.86-6.612l-1.73-2.17-1.094-1.43-1.171 1.277c-1.4 1.583-3.817 3.319-5.878 4.264l-1.552.715 4.377 4.187 4.631 4.519c.407.46.56.408 2.265-.485z" fill="#fff"/><path d="M121.21 117.044c.56-.945 1.451-3.498 1.451-4.162 0-.587-2.928-5.796-5.322-9.498l-1.655-2.553-.178 1.149a11.96 11.96 0 0 1-1.783 4.621l-.764 1.226 3.769 4.979c2.063 2.757 3.82 5.004 3.896 5.004s.357-.332.586-.766z" fill="#dc3545"/><path d="M101.331 114.683c.469-.177.208-.505-2.162-2.981l-4.116-4.294c-1.277-1.389-1.511-1.516-2.084-1.288-.339.126-1.537.303-2.631.404l-1.98.152 4.064 4.092 4.611 4.219c.651.152 3.595-.051 4.298-.303z" fill="#fff"/><path d="M106.986 112.143c1.538-.984 4.587-3.807 4.587-4.222-.026-.155-4.997-6.294-6.714-8.288l-.769-.881-1.563 1.554c-1.948 1.891-3.639 3.108-5.817 4.222-.923.466-1.717.881-1.768.932s1.717 2.072 3.921 4.481l4.023 4.403 1.204-.57c.666-.311 1.973-1.036 2.896-1.632z" fill="#dc3545"/><path d="M113.446 105.265c.684-1.399 1.089-2.642 1.19-3.627.127-1.321.076-1.58-.582-2.565-1.038-1.58-3.823-5.285-5.164-6.917l-1.139-1.373-.177 1.218c-.152 1.114-1.367 3.938-2.405 5.57-.405.674-.38.674 2.911 4.741l3.645 4.585c.177.285.405.518.506.518s.633-.959 1.215-2.15z" fill="#fff"/><path d="M92.959 105.545c.523-.153.366-.382-1.857-2.88l-6.331-7.367c-.026-.051-.968.102-2.067.331-1.073.255-2.224.382-2.485.306-.288-.076-.523-.076-.523 0 0 .204 4.866 6.092 6.776 8.208l1.727 1.886 2.093-.153c1.151-.102 2.354-.229 2.668-.331z" fill="#dc3545"/><path d="M98.329 102.958a29.54 29.54 0 0 0 3.337-2.713l1.591-1.551-.693-.827-4.44-5.194-3.747-4.316-1.694 1.706c-1.848 1.835-4.492 3.695-6.314 4.393-.616.233-1.129.491-1.129.594 0 .155 3.722 4.626 6.93 8.347l1.668 1.938 1.36-.594c.77-.336 2.182-1.137 3.131-1.783z" fill="#fff"/><path d="M105.439 95.937c.878-1.534 1.63-3.809 1.63-4.934 0-.767-.276-1.227-1.78-2.965l-6.495-6.928c0 .792-1.028 3.17-2.081 4.78l-1.078 1.687 4.238 5.036c3.285 3.86 4.338 4.934 4.589 4.729.176-.153.627-.792.978-1.406z" fill="#dc3545"/><path d="M83.615 94.193c.386-.151.335-.301-.386-1.255l-6.047-7.68-1.107-1.405-.952.326c-.515.176-1.493.326-2.162.351-.695 0-1.235.075-1.235.201 0 .1 1.004 1.481 2.187 3.062l3.68 4.844 1.467 1.958 2.059-.125c1.132-.05 2.265-.176 2.496-.276z" fill="#fff"/><path d="M89.265 91.998c.749-.491 2.169-1.655 3.176-2.612l1.807-1.707-3.563-3.983-4.493-5.044-.93-1.035-.981 1.086c-1.343 1.526-3.692 3.233-5.68 4.164-.93.44-1.678.854-1.678.931 0 .052 1.807 2.431 4.002 5.277l4.002 5.173 1.498-.673a25.5 25.5 0 0 0 2.84-1.578z" fill="#dc3545"/><path d="M95.437 86.074c1.112-1.726 1.972-3.579 2.174-4.67.202-.99.834-.228-6.952-8.325l-1.643-1.7-.455 1.472c-.228.812-.91 2.208-1.517 3.122l-1.112 1.65 4.323 4.822 4.348 4.873c.025 0 .404-.558.834-1.244z" fill="#fff"/><path d="M74.258 83.567c.691-.156 1.279-.338 1.279-.391 0-.417-6.268-8.435-6.498-8.331-.154.052-.921.364-1.689.703-.768.312-1.458.625-1.509.651-.051.052.256.521.665 1.067.435.547 1.612 2.239 2.635 3.801 1.816 2.734 1.868 2.786 2.84 2.786.537 0 1.561-.13 2.277-.286z" fill="#dc3545"/><path d="M78.353 82.148c1.866-.959 4.949-3.37 5.701-4.459.311-.441.207-.674-1.14-2.229l-3.68-4.122-2.203-2.385-2.125 1.996c-1.166 1.089-2.824 2.411-3.68 2.929l-1.581.907 3.161 4.199 3.343 4.174c.13.026 1.114-.441 2.203-1.011z" fill="#fff"/><g fill="#dc3545"><path d="M58.253 77.896c2.737-.338 6.196-1.117 6.196-1.376 0-.234-2.556-4.103-4.131-6.284-1.962-2.675-6.506-9.556-8.778-13.269l-2.453-3.947c-.052-.052-.929.312-1.988.831-3.666 1.766-8.985 2.649-14.536 2.389-4.828-.208-10.895-1.272-13.529-2.389-1.084-.467-1.317-.286-.62.493 1.188 1.272 3.331 4.96 5.499 9.4 2.453 5.012 3.873 8.803 3.873 10.439v.987l2.788.727c4.338 1.117 10.302 2.051 14.897 2.363 2.324.156 10.586-.078 12.78-.364zm28.899-3.573c.477-.947.929-2.157 1.03-2.71l.176-1-3.718-3.788-3.743-3.762-.201 1.026c-.126.579-.703 1.815-1.331 2.789-.603.947-1.08 1.842-1.055 1.947.05.105 1.407 1.736 3.039 3.631l3.492 4.13.527.684.452-.605c.251-.342.854-1.394 1.331-2.341zm-18.852.443c2.394-1.169 5.679-3.533 7.334-5.3l.942-.987-4.507-4.676c-4.457-4.599-8.989-9.535-11.791-12.86-1.299-1.533-1.477-1.871-1.732-3.507-.178-.987-.484-2.078-.688-2.39s-.357-.909-.357-1.299c0-1.065-.28-1.325-.942-.987-.331.182-2.266 1.507-2.012 1.299.586-.442-1.604 1.455-2.47 2.39L50.194 48.5c-.331.338-.815 1.455-.968 2.26-.076.338.025.416.458.338.968-.182 3.285-1.325 3.412-1.533 2.114-1.481 3.423-3.633 3.642-4.079.255-.52.509-.779.764-1.039.255.26.331.727-.509 2.078-1.095 1.767-3.107 3.559-4.966 4.443-1.706.831-1.91.753-2.674.753-.076-.182.866 1.169 1.222 1.819C53.86 59.438 64.912 75.883 65.6 75.883c.204 0 1.426-.52 2.699-1.117zm-41.619-.917c0-3.236-7.549-18.146-10.733-21.149l-.77-.725-.18.958c-.282 1.631-1.412 3.495-3.056 5.151-1.669 1.683-4.34 3.236-5.572 3.236-1.541 0-1.566.233-.051 1.631 2.927 2.744 7.472 5.824 11.966 8.128 2.106 1.061 7.601 3.417 8.089 3.417.154.026.308-.285.308-.647zm50.527-7.654c-.36-3.566-1.234-7.056-3.316-13.162-3.445-10.083-4.062-11.802-4.293-11.802-.129 0-.231.128-.231.257 0 .385-1.568.308-2.802-.128-2.622-.924-7.224-3.515-10.746-6.081-.746-.539-1.388-.975-1.414-.975-.051 0 .463 1.129 1.105 2.514 1.465 3.028 2.879 6.953 3.728 10.237.514 2.027.797 2.668 1.697 3.772 2.16 2.591 6.556 7.287 11.106 11.905 2.571 2.566 4.705 4.798 4.73 4.926.051.154.206.257.36.257s.18-.641.077-1.719zm2.244-.821c1.29-2.724 1.29-2.804-.273-4.46-.769-.801-1.439-1.389-1.539-1.309-.074.107.025 1.362.248 2.831l.397 3.766c0 .614.074 1.068.199 1.015.099-.08.521-.908.968-1.843z"/><path d="M9.175 59.926c2.88-1.46 5.42-4.615 6.022-7.431.131-.704.026-.991-.681-1.773-2.985-3.389-8.745-3.416-11.337-.052-2.147 2.816-1.885 6.518.655 9.386.838.965.916.991 2.226.886.864-.078 2.016-.443 3.116-1.017zm67.174-5.176l-1.43-7.176c-1.96-9.886-5.35-21.759-6.462-22.637-.953-.774-6.78-4.62-6.78-4.491 0 .077.397.8.9 1.626 2.542 4.259 5.085 10.118 8.316 19.307l5.641 15.1c.106 0 0-.774-.185-1.729zM55.487 42.509c.735-.467 1.339-.959 1.339-1.114 0-.415-2.153-5.494-3.045-7.179-.551-1.063-1.444-2.047-3.176-3.577-1.339-1.166-2.441-1.996-2.441-1.866 0 1.089 5.486 14.54 5.932 14.54.026 0 .656-.363 1.391-.803zm14.033-2.01c.287-.337.13-1.01-.912-3.832-2.372-6.576-4.691-11.443-7.792-16.362-1.355-2.123-1.72-2.408-1.72-1.32 0 .906-1.459 3.107-2.841 4.349-1.694 1.502-4.457 2.926-6.385 3.288-.86.155-1.616.337-1.694.414-.339.362 6.698 6.214 10.659 8.854 3.336 2.252 8.809 4.945 10.06 4.997.156 0 .443-.181.625-.388zM52.433 25.166c3.415-1.687 6.126-4.801 6.126-7.033 0-1.687-2.633-4.204-5.161-4.957-3.389-1.038-6.569.234-8.263 3.296-.678 1.194-.782 1.687-.782 3.348 0 2.102.391 3.166 2.033 5.398l.834 1.116 1.642-.104c1.225-.104 2.164-.389 3.571-1.064zm-2.664-13.871c1.046-.231 1.735-.206 2.985.026 1.607.334 1.658.334 2.525-.334 1.811-1.387 2.934-3.469 2.934-5.37 0-1.028-.128-1.259-1.122-2.184-1.25-1.156-2.194-1.696-3.393-1.978-.714-.128-.842-.103-.842.308-.026.848-.969 2.595-2.041 3.777-1.046 1.131-3.163 2.21-4.337 2.21-.408 0-.459.128-.332.976.077.514.383 1.439.663 2.055.408.925.612 1.105 1.046.951l1.913-.437zm-2.071-4.144c1.516-.668 2.666-1.722 3.529-3.213 1.281-2.159.967-2.596-1.333-1.902-1.987.565-4.156 3.136-4.156 4.935 0 .822.47.848 1.96.18zm19.757 13.608c-2.356-5.628-5.454-11.049-8.233-14.456-.529-.645-.582-.594-.635.594-.079 1.342-1.006 2.891-2.594 4.414l-1.244 1.162.9.542c1.085.671 3.468 3.072 4.712 4.776.609.826 1.747 1.781 3.415 2.865 1.403.904 2.992 1.988 3.574 2.452.556.439 1.112.8 1.244.8.106 0-.397-1.42-1.138-3.149z"/></g><g fill="#fff"><path d="M125.994 133.729l-1.564-.727c-.521-.182-1.225-.545-1.485-.753-.86-.753-3.205-2.831-3.049-2.987.052-.078.443.13.834.442 1.928 1.559 4.013 2.961 5.42 3.689l1.642.935c.313.286-.521.026-1.798-.597zm1.685-.454c-.659-.555-2.531-1.744-4.139-2.695-2.794-1.638-3.743-2.404-2.267-1.849.975.37 6.38 3.382 7.039 4.042.264.264.738.819.817.951.422.661-.369.396-1.45-.449zM21.341 71.857c-.675-.327-3.323-2.104-3.323-2.501 0-.164.389.047.857.421 1.038.865 2.388 1.777 3.427 2.268.441.21.675.374.519.374-.13 0-.805-.257-1.48-.561zm1.902-.15l-3.037-1.885c-1.225-.749-1.705-1.16-1.412-1.208.533-.097 2.344.918 3.41 1.644s2.397 1.813 2.397 2.054c0 .218-.16.145-1.359-.604zM61.79 37.412c-.962-.589-2.218-1.613-2.806-2.279-1.683-1.946-1.416-2.049.454-.179.908.947 2.325 2.125 3.126 2.612 1.977 1.28 1.336 1.152-.775-.154z"/><path d="M64.174 38.272c-1.426-.772-6.312-4.873-5.942-5.006.158-.053 2.324 1.252 3.195 2.077.238.24.739.666 1.109.959.396.293.951.772 1.268 1.065.29.293 1.004.692 1.32.959.739.666.317.639-.951-.053z"/></g></g></g></svg>
