<svg xmlns="http://www.w3.org/2000/svg" width="940" height="300" xmlns:v="https://vecta.io/nano">
<defs>
    <path id="A" d="M343.7 195v-33.3l15.2-17.3 37.7 50.6h42.7l-58.5-75.7L432.6 55h-41.4l-47.5 59.7V55h-33.2v140h33.2zm154.618 3c5.067 0 10.4-.533 16-1.6s10.867-2.55 15.8-4.45 8.967-4.083 12.1-6.55h0l-10.3-22.2c-9.733 6.4-20.6 9.6-32.6 9.6-8.067 0-14.617-1.85-19.65-5.55s-7.617-8.55-7.75-14.55h0 76.6c2.133-11.933 1.35-22.617-2.35-32.05s-9.733-16.9-18.1-22.4S509.552 90 497.618 90c-10.8 0-20.383 2.3-28.75 6.9s-14.95 10.967-19.75 19.1-7.2 17.433-7.2 27.9c0 10.867 2.367 20.35 7.1 28.45s11.333 14.4 19.8 18.9 18.3 6.75 29.5 6.75zm19-67.4h-43.4c.533-5.133 2.883-9.233 7.05-12.3s9.417-4.6 15.75-4.6c6.267 0 11.233 1.533 14.9 4.6s5.567 7.167 5.7 12.3h0zm67.518 109.1c9.267 0 17.75-2.517 25.45-7.55s14.117-14.05 19.25-27.05h0l42.3-112.1h-34.7l-21.9 69.9-22.6-69.9h-35.6l39.6 102.4-1.5 4.8c-1.133 3.6-2.983 6.15-5.55 7.65s-5.683 2.25-9.35 2.25c-2.267 0-4.7-.317-7.3-.95s-5-1.55-7.2-2.75h0l-6.9 27.4c3.733 2.067 7.833 3.567 12.3 4.5s9.033 1.4 13.7 1.4zM751.255 198c9.667 0 18.333-2.25 26-6.75s13.7-10.8 18.1-18.9 6.6-17.55 6.6-28.35c0-10.2-2.2-19.367-6.6-27.5s-10.45-14.583-18.15-19.35-16.55-7.15-26.55-7.15c-11.733 0-21.767 3.567-30.1 10.7h0V51h-32.7v144h28.3v-12c3.667 4.6 8.517 8.25 14.55 10.95s12.883 4.05 20.55 4.05zm-6.1-28.2c-7 0-12.85-2.317-17.55-6.95s-7.05-10.917-7.05-18.85 2.333-14.217 7-18.85 10.533-6.95 17.6-6.95c7.133 0 13.033 2.317 17.7 6.95s7 10.917 7 18.85-2.35 14.217-7.05 18.85-10.583 6.95-17.65 6.95zM872.573 198c8.333 0 15.967-1.45 22.9-4.35s12.917-6.883 17.95-11.95 8.933-10.833 11.7-17.3 4.15-13.267 4.15-20.4c0-9.8-2.417-18.8-7.25-27s-11.5-14.75-20-19.65S883.706 90 872.573 90c-8.333 0-15.967 1.45-22.9 4.35s-12.933 6.883-18 11.95-8.983 10.833-11.75 17.3-4.15 13.267-4.15 20.4c0 9.8 2.417 18.8 7.25 27s11.517 14.75 20.05 19.65 18.367 7.35 29.5 7.35zm0-28.2c-7.067 0-12.95-2.317-17.65-6.95s-7.05-10.917-7.05-18.85 2.333-14.217 7-18.85 10.567-6.95 17.7-6.95c7.067 0 12.933 2.317 17.6 6.95s7 10.917 7 18.85-2.35 14.217-7.05 18.85-10.55 6.95-17.55 6.95z"/>
    <path id="C" d="M344.65 334.5c6 0 11.25-.758 15.75-2.275s8.367-3.525 11.6-6.025h0l-7.6-13.95c-2.767 2.133-5.692 3.675-8.775 4.625s-6.192 1.425-9.325 1.425c-6.533 0-11.667-1.792-15.4-5.375s-5.6-8.575-5.6-14.975c0-6.233 1.817-11.175 5.45-14.825s8.717-5.475 15.25-5.475c6.767 0 12.117 1.983 16.05 5.95h0l8.3-13.65c-3.233-2.667-6.825-4.742-10.775-6.225s-8.842-2.225-14.675-2.225c-5.4 0-10.35.892-14.85 2.675s-8.408 4.317-11.725 7.6-5.883 7.167-7.7 11.65-2.725 9.408-2.725 14.775c0 7.4 1.55 13.817 4.65 19.25s7.417 9.633 12.95 12.6 11.917 4.45 19.15 4.45zm69.609 0c5.367 0 10.325-.925 14.875-2.775s8.508-4.425 11.875-7.725 5.975-7.167 7.825-11.6 2.775-9.233 2.775-14.4c0-5.1-.925-9.858-2.775-14.275a35.48 35.48 0 0 0-7.825-11.625c-3.367-3.333-7.325-5.933-11.875-7.8s-9.508-2.8-14.875-2.8c-5.4 0-10.367.917-14.9 2.75s-8.483 4.4-11.85 7.7-5.975 7.167-7.825 11.6-2.775 9.25-2.775 14.45c0 5.167.925 9.967 2.775 14.4s4.458 8.3 7.825 11.6 7.317 5.875 11.85 7.725 9.5 2.775 14.9 2.775zm0-15.6c-3.8 0-7.208-.858-10.225-2.575s-5.392-4.142-7.125-7.275-2.6-6.817-2.6-11.05c0-4.267.867-7.958 2.6-11.075s4.108-5.542 7.125-7.275 6.425-2.6 10.225-2.6c3.833 0 7.25.867 10.25 2.6s5.367 4.158 7.1 7.275 2.6 6.808 2.6 11.075c0 4.233-.867 7.917-2.6 11.05s-4.1 5.558-7.1 7.275-6.417 2.575-10.25 2.575zm95.159 14.1v-15.15h-28.1V263h-16.6v70h44.7zm57.009 0v-15.15h-28.1V263h-16.6v70h44.7zm61.909 0v-14.55h-33V303.7h27.35v-13.3h-27.35v-13h32.6V263h-49.2v70h49.6zm47.209 1.5c6 0 11.25-.758 15.75-2.275s8.367-3.525 11.6-6.025h0l-7.6-13.95c-2.767 2.133-5.692 3.675-8.775 4.625s-6.192 1.425-9.325 1.425c-6.533 0-11.667-1.792-15.4-5.375s-5.6-8.575-5.6-14.975c0-6.233 1.817-11.175 5.45-14.825s8.717-5.475 15.25-5.475c6.767 0 12.117 1.983 16.05 5.95h0l8.3-13.65c-3.233-2.667-6.825-4.742-10.775-6.225s-8.842-2.225-14.675-2.225c-5.4 0-10.35.892-14.85 2.675s-8.408 4.317-11.725 7.6-5.883 7.167-7.7 11.65-2.725 9.408-2.725 14.775c0 7.4 1.55 13.817 4.65 19.25s7.417 9.633 12.95 12.6 11.917 4.45 19.15 4.45zm67.359-1.5v-54.85h18.65V263h-54v15.15h18.65V333h16.7zm46.309 0v-70h-16.6v70h16.6zm53.459 0l25.6-70h-18.4l-16.45 48.9-16.75-48.9h-18.7l25.8 70h18.9zm83.959 0v-14.55h-33V303.7h27.35v-13.3h-27.35v-13h32.6V263h-49.2v70h49.6z"/>
</defs>
<style>
    .W { fill: #EEE; }
    .R { fill: red; }
    .B { fill: #111; }
    .T { fill: #7b6f64; }
    @media (prefers-color-scheme: light) {
        .T { fill: #111; }
    }
    @media (prefers-color-scheme: dark) {
        .T { fill: #EEE; }
    }
</style>
<g transform="translate(0 -45)" fill="none" fill-rule="nonzero">
    <use class="T" href="#A"/>
    <use class="T" href="#C"/>
    <g transform="matrix(1 0 0 -1 11 337)">
    <g class="B">
        <path d="M264.945 277.662l-5.261-6.217c-.347-.547-1.142-.945-1.737-.945-1.737 0-3.276-1.343-3.623-3.233-.397-2.238-1.737-3.133-7.594-5.173-15.585-5.371-35.488-16.91-52.264-30.289-11.316-8.952-26.802-25.166-39.955-41.629-6.701-8.455-22.186-29.493-28.639-38.993-1.241-1.79-1.688-2.089-2.73-1.84-12.855 2.835-20.3 3.531-33.056 3.133-22.633-.746-42.735-5.968-59.958-15.567-14.096-7.908-24.718-16.96-28.39-24.271C.298 109.753 0 108.709 0 105.923c0-4.725 1.191-7.709 4.467-10.992 3.921-3.979 5.708-4.725 11.168-4.725 3.871 0 4.814.199 7.296 1.393 1.539.746 4.12 2.586 5.758 4.029 2.283 2.039 3.921 2.984 7.346 4.228 10.373 3.78 18.861 5.222 30.227 5.222 10.919-.05 17.521-1.194 25.214-4.377 1.638-.746 1.787-.895 1.241-1.79-.943-1.492 1.539-5.919 5.658-10.096l3.325-3.432L100.012 82c-3.325-6.615-6.552-15.07-9.679-25.365-1.191-3.83-2.134-5.869-3.524-7.61-3.077-3.879-4.07-6.515-4.318-11.141-.199-3.879-.099-4.377 1.34-7.361.893-1.741 2.382-3.83 3.325-4.625l1.737-1.442-1.042-1.293c-2.73-3.432-3.325-10.196-1.29-14.573C89.887 1.378 97.58-1.755 105.075.98c7.247 2.735 18.762 18.601 25.661 35.362 4.814 11.738 9.381 26.758 13.153 43.022 1.539 6.615 4.219 22.381 4.814 28.001l.298 3.233 20.201 20.392c41.692 42.077 53.952 57.445 69.04 86.541 6.502 12.533 13.649 30.289 16.131 40.286.943 3.83 1.985 5.67 3.871 6.665 1.34.696 2.631 3.133 2.134 3.929-.149.249 1.34 2.338 3.276 4.625 5.013 5.919 7.346 8.903 7.346 9.45 0 1.442-1.985-.149-6.055-4.824z"/>
        <path d="M258.983 267.714c.105-.812-.262-1.319-1.413-1.928-.89-.406-2.25-1.674-2.983-2.79-1.413-2.08-1.989-2.435-2.564-1.522-.157.254.523 1.319 1.518 2.334s2.093 2.638 2.46 3.602c.419 1.37.837 1.674 1.675 1.573.733-.101 1.204-.558 1.308-1.268z"/>
    </g>
        <path d="M252.111 260.155c.494-.447.889-1.094.889-1.392 0-1.094-4.248-13.223-6.916-19.884a276.41 276.41 0 0 0-6.076-13.671L236.6 218l-.692 2.684c-1.136 4.225-3.112 7.506-6.866 11.235-4.89 4.822-10.67 7.954-15.412 8.302-.889.05-1.63.249-1.63.447 0 .646 15.017 9.495 21.982 12.925 5.681 2.784 16.202 7.357 16.993 7.407.148 0 .642-.348 1.136-.845zm-37.113-21.793c.1-.097-2.895-3.1-6.687-6.637l-9.283-8.768c-2.096-1.986-2.545-2.228-3.444-1.744-.599.291-2.745.63-4.841.775l-3.743.291 1.248 1.017c7.686 6.104 13.824 10.851 17.118 13.128 3.943 2.761 3.993 2.761 6.737 2.422 1.497-.194 2.845-.388 2.895-.484z" class="R"/>
        <path d="M220.15 236.484c2.7-1.457 9.85-7.536 9.85-8.39 0-.301-7.15-10.047-9.55-13.011l-3.4-4.27L214.9 208l-2.3 2.512c-2.75 3.115-7.5 6.531-11.55 8.39l-3.05 1.407 8.6 8.239 9.1 8.892c.8.904 1.1.804 4.45-.955z" class="W"/>
        <path d="M232.157 225.511c1.097-1.836 2.843-6.798 2.843-8.089 0-1.141-5.735-11.265-10.423-18.46L221.336 194l-.349 2.233c-.499 3.126-1.696 6.253-3.491 8.982L216 207.597l7.381 9.677c4.039 5.359 7.48 9.726 7.63 9.726s.698-.645 1.147-1.489z" class="R"/>
        <path d="M194.632 220.29c.89-.353.396-1.009-4.105-5.956l-7.815-8.58c-2.424-2.776-2.869-3.028-3.957-2.574-.643.252-2.918.606-4.996.808l-3.759.303 7.716 8.177c4.254 4.492 8.211 8.277 8.755 8.429 1.237.303 6.826-.101 8.161-.606z" class="W"/>
        <path d="M205.175 215.764c2.958-1.894 8.825-7.326 8.825-8.123-.049-.299-9.614-12.11-12.917-15.947L199.603 190l-3.008 2.99c-3.747 3.638-7.001 5.98-11.192 8.123-1.775.897-3.303 1.694-3.402 1.794s3.303 3.987 7.543 8.621l7.741 8.472 2.317-1.096c1.282-.598 3.796-1.993 5.571-3.14z" class="R"/>
        <path d="M217.562 202.863c1.339-2.692 2.132-5.084 2.33-6.978.248-2.542.149-3.04-1.14-4.935-2.033-3.04-7.486-10.168-10.113-13.308L206.407 175l-.347 2.343c-.297 2.143-2.677 7.576-4.71 10.717-.793 1.296-.744 1.296 5.701 9.121l7.139 8.822c.347.548.793.997.992.997s1.239-1.844 2.38-4.137z" class="W"/>
        <path d="M178.519 203.053c1.007-.299.705-.748-3.574-5.631-3.825-4.336-11.778-13.755-12.181-14.402-.05-.1-1.862.199-3.976.648-2.064.498-4.278.748-4.782.598-.554-.15-1.007-.15-1.007 0 0 .399 9.362 11.911 13.036 16.047l3.322 3.688 4.027-.299c2.215-.199 4.53-.449 5.134-.648z" class="R"/>
        <path d="M189.427 197.379c1.845-1.256 4.786-3.616 6.481-5.274l3.091-3.014-1.346-1.607c-.748-.904-4.637-5.425-8.625-10.096L181.749 169l-3.291 3.315c-3.59 3.566-8.725 7.183-12.265 8.539-1.197.452-2.194.954-2.194 1.155 0 .301 7.229 8.991 13.462 16.224l3.241 3.767 2.642-1.155c1.496-.653 4.238-2.21 6.083-3.466z" class="W"/>
        <path d="M202.721 184.191c1.765-3.014 3.279-7.484 3.279-9.694 0-1.507-.555-2.411-3.581-5.827-8.322-9.343-13.064-14.265-13.064-13.612 0 1.557-2.068 6.228-4.186 9.393L183 167.766l8.524 9.895c6.607 7.585 8.726 9.694 9.23 9.292.353-.301 1.261-1.557 1.967-2.763z" class="R"/>
        <path d="M160.548 182.215c.732-.294.634-.589-.732-2.453l-11.469-15.014-2.099-2.748-1.806.638c-.976.343-2.831.638-4.1.687-1.318 0-2.343.147-2.343.393 0 .196 1.903 2.895 4.148 5.986l6.979 9.47 2.782 3.827 3.904-.245c2.147-.098 4.295-.343 4.734-.54z" class="W"/>
        <path d="M171.508 176.67c1.426-.946 4.131-3.185 6.049-5.026l3.443-3.285-6.787-7.664-8.557-9.705-1.77-1.991-1.869 2.09c-2.557 2.936-7.033 6.221-10.82 8.012-1.77.846-3.197 1.642-3.197 1.792 0 .1 3.443 4.678 7.623 10.152l7.623 9.953 2.852-1.294c1.525-.697 3.984-2.09 5.41-3.036z" class="R"/>
        <path d="M183.556 164.581c2.171-3.357 3.849-6.96 4.244-9.083.395-1.925 1.629-.444-13.572-16.191L171.021 136l-.888 2.863c-.444 1.58-1.777 4.295-2.961 6.072L165 148.143l8.439 9.379 8.488 9.478c.049 0 .79-1.086 1.629-2.419z" class="W"/>
        <path d="M143.495 161.46c1.353-.295 2.505-.639 2.505-.737 0-.786-12.275-15.917-12.726-15.721-.301.098-1.804.688-3.307 1.326-1.503.59-2.856 1.179-2.956 1.228-.1.098.501.983 1.303 2.014.852 1.032 3.156 4.225 5.161 7.173 3.557 5.158 3.658 5.257 5.561 5.257 1.052 0 3.056-.246 4.459-.54z" class="R"/>
        <path d="M151.751 158.077c3.59-1.823 9.522-6.405 10.968-8.474.598-.838.399-1.281-2.194-4.237-1.546-1.823-4.736-5.321-7.079-7.833L149.209 133l-4.088 3.794c-2.243 2.069-5.434 4.582-7.079 5.567L135 144.085l6.082 7.981c3.29 4.335 6.232 7.932 6.431 7.932.249.049 2.144-.838 4.238-1.921z" class="W"/>
        <path d="M112.122 149.216c5.246-.641 11.878-2.119 11.878-2.612 0-.443-4.899-7.786-7.918-11.925-3.761-5.075-12.471-18.133-16.827-25.18l-4.702-7.49c-.099-.099-1.782.591-3.811 1.577-7.028 3.351-17.222 5.026-27.863 4.533-9.255-.394-20.885-2.415-25.933-4.533-2.079-.887-2.524-.542-1.188.936 2.277 2.415 6.384 9.412 10.541 17.838 4.702 9.51 7.423 16.704 7.423 19.809v1.872l5.345 1.38c8.314 2.119 19.746 3.893 28.556 4.484 4.454.296 20.291-.148 24.497-.69zM167.6 142.4c.95-1.8 1.85-4.1 2.05-5.15l.35-1.9-7.399-7.2-7.449-7.15-.4 1.95c-.25 1.1-1.4 3.45-2.65 5.3-1.2 1.8-2.15 3.5-2.1 3.7.1.2 2.8 3.3 6.049 6.9 3.25 3.55 6.399 7.1 6.949 7.85l1.05 1.3.9-1.15c.5-.65 1.7-2.65 2.65-4.45zm-35.625 1.451c4.635-2.249 10.995-6.798 14.2-10.197l1.824-1.899-8.727-8.998c-8.629-8.848-17.405-18.345-22.829-24.743-2.515-2.949-2.86-3.599-3.353-6.748-.345-1.899-.937-3.999-1.331-4.599s-.69-1.75-.69-2.499c0-2.049-.542-2.549-1.824-1.899-.641.35-4.388 2.899-3.895 2.499 1.134-.85-3.106 2.799-4.783 4.599l-3.649 3.949c-.641.65-1.578 2.799-1.874 4.349-.148.65.049.8.888.65 1.874-.35 6.361-2.549 6.607-2.949 4.092-2.849 6.627-6.989 7.051-7.848.493-1 .986-1.5 1.479-1.999.493.5.641 1.4-.986 3.999-2.12 3.399-6.015 6.848-9.615 8.548-3.304 1.6-3.698 1.45-5.177 1.45-.148-.35 1.676 2.249 2.367 3.499 6.361 11.343 27.76 42.985 29.091 42.985.394 0 2.761-1 5.226-2.149zM52 141.762c0-6.178-14.759-34.645-20.984-40.378L29.51 100l-.351 1.829c-.552 3.114-2.761 6.672-5.974 9.835-3.263 3.212-8.484 6.178-10.894 6.178-3.012 0-3.062.445-.1 3.114 5.723 5.239 14.609 11.12 23.394 15.519 4.117 2.026 14.86 6.524 15.813 6.524.301.049.602-.544.602-1.236zm96.881-14.086c-.692-6.897-2.374-13.645-6.381-25.454-6.628-19.5-7.815-22.824-8.26-22.824-.247 0-.445.248-.445.496 0 .744-3.017.595-5.392-.248-5.045-1.786-13.899-6.798-20.676-11.76-1.434-1.042-2.671-1.885-2.721-1.885-.099 0 .89 2.183 2.127 4.863 2.819 5.855 5.54 13.447 7.172 19.798.989 3.92 1.533 5.16 3.265 7.294 4.155 5.011 12.613 14.092 21.368 23.023 4.946 4.962 9.052 9.279 9.101 9.527.099.298.396.496.692.496s.346-1.24.148-3.324zm3.093-2.068c2.793-5.003 2.793-5.15-.591-8.191-1.665-1.471-3.115-2.551-3.33-2.403-.161.196.054 2.501.537 5.199s.859 5.788.859 6.916.161 1.962.43 1.864c.215-.147 1.128-1.668 2.095-3.384zM17.32 115.019c5.541-2.733 10.428-8.639 11.586-13.91.252-1.318.05-1.855-1.31-3.319-5.743-6.345-16.826-6.394-21.813-.098-4.131 5.271-3.627 12.202 1.259 17.571 1.612 1.806 1.763 1.855 4.282 1.659 1.662-.146 3.879-.83 5.995-1.904zm129.253-10.33l-2.688-13.739c-3.683-18.929-10.054-41.663-12.144-43.344-1.792-1.483-12.741-8.847-12.741-8.6 0 .148.747 1.532 1.692 3.114 4.778 8.155 9.556 19.374 15.628 36.968L146.921 108c.199 0 0-1.483-.348-3.311zm-40.046-22.235c1.358-.898 2.473-1.845 2.473-2.144 0-.798-3.976-10.571-5.624-13.813-1.018-2.044-2.667-3.939-5.867-6.881-2.473-2.244-4.509-3.84-4.509-3.59C93 58.12 103.133 84 103.958 84c.048 0 1.212-.698 2.57-1.546zm26.231-4.195c.547-.643.249-1.928-1.741-7.315-4.526-12.555-8.953-21.847-14.872-31.239-2.586-4.053-3.283-4.597-3.283-2.521 0 1.73-2.785 5.931-5.421 8.304-3.233 2.867-8.505 5.585-12.186 6.277-1.641.297-3.084.643-3.233.791-.647.692 12.783 11.863 20.343 16.905 6.366 4.3 16.811 9.441 19.199 9.54.298 0 .846-.346 1.194-.741zm-32.4-29.506C106.848 45.508 112 39.516 112 35.222c0-3.246-5.004-8.089-9.809-9.537-6.44-1.997-12.484.449-15.705 6.341C85.198 34.323 85 35.272 85 38.467c0 4.044.743 6.092 3.864 10.386L90.45 51l3.121-.2c2.328-.2 4.112-.749 6.787-2.047zm-5.067-26.688c2.07-.445 3.433-.395 5.906.049 3.18.643 3.281.643 4.998-.643C109.779 18.802 112 14.798 112 11.14c0-1.977-.252-2.422-2.221-4.202-2.474-2.225-4.341-3.263-6.714-3.806-1.413-.247-1.666-.198-1.666.593-.05 1.631-1.918 4.993-4.039 7.267-2.07 2.175-6.26 4.251-8.582 4.251-.808 0-.909.247-.656 1.878.151.989.757 2.768 1.313 3.955.808 1.78 1.212 2.126 2.07 1.829.606-.148 2.272-.544 3.786-.84zm-3.519-8.946c2.917-1.248 5.13-3.216 6.789-6 2.464-4.032 1.861-4.848-2.565-3.552C92.174 4.624 88 9.423 88 12.783c0 1.536.905 1.584 3.772.336zm38.066 26.763c-4.42-10.932-10.231-21.462-15.445-28.082-.993-1.254-1.093-1.153-1.192 1.153-.149 2.608-1.887 5.616-4.867 8.575L106 23.785l1.689 1.053c2.036 1.304 6.506 5.967 8.84 9.277 1.142 1.605 3.278 3.46 6.406 5.566 2.632 1.755 5.612 3.861 6.704 4.764 1.043.852 2.086 1.555 2.334 1.555.199 0-.745-2.758-2.135-6.118z" class="R"/>
        <path d="M242.492 256.628l-2.943-1.399c-.981-.35-2.305-1.05-2.796-1.449-1.619-1.449-6.033-5.448-5.739-5.747.098-.15.834.25 1.57.85 3.63 2.999 7.554 5.697 10.202 7.097 1.57.85 2.992 1.649 3.09 1.799.589.55-.981.05-3.384-1.149zm2.617-1.108c-1.217-1.001-4.674-3.145-7.645-4.861-5.161-2.955-6.914-4.337-4.187-3.336 1.802.667 11.783 6.1 13.001 7.291.487.477 1.363 1.477 1.509 1.716.779 1.191-.682.715-2.678-.81zM41.165 138.741c-1.252-.735-6.165-4.723-6.165-5.615 0-.367.722.105 1.589.945 1.927 1.942 4.431 3.988 6.358 5.09.819.472 1.252.84.963.84-.241 0-1.493-.577-2.745-1.259zm3.298-.234l-5.671-3.957c-2.288-1.573-3.184-2.435-2.636-2.536.995-.203 4.377 1.928 6.367 3.45S47 139.268 47 139.775c0 .457-.298.304-2.537-1.268zm73.866-66.454c-1.796-1.093-4.141-2.993-5.239-4.228-3.143-3.611-2.645-3.801.848-.333 1.696 1.758 4.341 3.943 5.838 4.846 3.692 2.375 2.495 2.138-1.447-.285zm5.142.98c-2.744-1.393-12.144-8.79-11.432-9.03.305-.096 4.471 2.257 6.148 3.746.457.432 1.423 1.201 2.134 1.729.762.528 1.829 1.393 2.439 1.921.559.528 1.931 1.249 2.541 1.729 1.423 1.201.61 1.153-1.829-.096z" class="W"/>
    </g>
</g>
</svg>
